<svg width="168" height="231" viewBox="0 0 168 231" fill="none" xmlns="http://www.w3.org/2000/svg">
<rect x="29.5" y="170.5" width="19" height="58" rx="2.5" fill="white" stroke="black" stroke-width="5"/>
<rect x="114.5" y="170.5" width="19" height="58" rx="2.5" fill="white" stroke="black" stroke-width="5"/>
<path d="M2.5 130C2.5 120.335 10.335 112.5 20 112.5H21.5V169.5H2.5V130Z" fill="white" stroke="black" stroke-width="5"/>
<path d="M145.5 112.5H147C156.665 112.5 164.5 120.335 164.5 130V169.5H145.5V112.5Z" fill="white" stroke="black" stroke-width="5"/>
<path d="M14 156.5H3.5V126C3.5 116.335 11.335 108.5 21 108.5H147.5C157.165 108.5 165 116.335 165 126V156.5H153H150.5V159V189.5H16.5V159V156.5H14Z" fill="white" stroke="black" stroke-width="5"/>
<path d="M150.574 159.5V203.5H130.5V107.5H145C154.665 107.5 162.5 115.335 162.5 125V157H153.074H150.574V159.5Z" fill="#BC9BC8" stroke="black" stroke-width="5"/>
<path d="M15.4256 159.5V203.5H35.5V107.5H21C11.335 107.5 3.5 115.335 3.5 125V157H12.9256H15.4256V159.5Z" fill="#BC9BC8" stroke="black" stroke-width="5"/>
<line x1="72.2322" y1="189.232" x2="84.2322" y2="177.232" stroke="black" stroke-width="5"/>
<line y1="-2.5" x2="16.9706" y2="-2.5" transform="matrix(-0.707107 -0.707107 -0.707107 0.707107 92 191)" stroke="black" stroke-width="5"/>
<g clip-path="url(#clip0)">
<path d="M133.25 55.9911L155.582 81.3335C155.582 81.3335 141.456 91.2692 126.077 81.3335H41.9229C26.5439 91.2692 12.4177 81.3335 12.4177 81.3335L34.7501 55.9911" fill="#F1B986"/>
<path d="M128.556 73.2938C128.556 48.5865 108.445 28.5761 83.6997 28.7392C59.0349 28.9016 39.3448 48.8128 39.4448 73.4782C39.4769 81.3777 41.5654 88.7913 45.2024 95.2129C48.3485 100.768 50.222 106.96 50.4214 113.341C50.679 121.583 53.9523 129.748 60.2435 136.039C73.2995 149.095 94.7009 149.095 107.757 136.039C114.049 129.747 117.322 121.581 117.579 113.339C117.775 107.057 119.52 100.915 122.653 95.4661C126.408 88.9367 128.556 81.3665 128.556 73.2938V73.2938Z" fill="#F1D0A5"/>
<path d="M84 145.832C75.384 145.832 66.7708 142.568 60.2429 136.041C53.9514 129.749 50.6789 121.582 50.4225 113.341C50.2208 106.96 48.3485 100.769 45.2026 95.2126C41.5642 88.7916 39.4757 81.3766 39.4442 73.478C39.3434 48.8134 59.0357 28.9022 83.7003 28.7406H83.8703C73.2232 28.9019 64.7251 48.8134 64.7684 73.478C64.7829 81.3769 65.6845 88.7916 67.2544 95.2126C68.6112 100.769 69.4206 106.96 69.507 113.341C69.6166 121.583 71.031 129.749 73.7444 136.041C76.5651 142.568 80.281 145.832 84 145.832Z" fill="#F1B986"/>
<path d="M74.5254 75.1947C70.789 74.8461 67.6347 72.7489 65.7969 69.7846C62.9305 71.8416 59.1626 72.5587 55.5476 71.3978C51.7797 70.1878 49.0631 67.218 48.0201 63.6862C44.399 64.9969 40.2079 64.467 36.9612 61.9117C33.2279 58.9763 31.7988 54.2001 32.9484 49.8847C28.054 48.5683 24.4419 44.1089 24.4245 38.7971C24.4043 33.4763 27.9936 28.9854 32.888 27.643C31.7155 23.3276 33.1299 18.5344 36.8574 15.5845C40.1013 13.0176 44.2982 12.4733 47.9221 13.7784C48.9593 10.2467 51.6698 7.27107 55.4406 6.05239C59.0559 4.88573 62.8268 5.59711 65.696 7.65119C67.5281 4.68686 70.6794 2.58422 74.4188 2.23272C78.1147 1.88411 81.5687 3.32161 83.9223 5.83935C86.2729 3.31872 89.7237 1.87572 93.4197 2.21826C97.1587 2.56398 100.313 4.65824 102.151 7.61968C105.015 5.56272 108.783 4.84266 112.398 6.00065C116.169 7.21066 118.882 10.1747 119.931 13.7036C123.546 12.3901 127.741 12.9144 130.99 15.4637C134.723 18.3933 136.158 23.1637 135.02 27.476C139.917 28.7779 143.538 33.2231 143.576 38.532V38.6268V38.7075C143.576 44.0222 139.975 48.4989 135.081 49.8297C136.242 54.1423 134.822 58.9271 131.091 61.8712C127.844 64.432 123.65 64.9679 120.029 63.6628C118.986 67.1946 116.275 70.1644 112.505 71.3802C108.889 72.544 105.122 71.8297 102.252 69.7756C100.417 72.7368 97.2657 74.8368 93.5267 75.1883C89.8307 75.534 86.3796 74.0936 84.026 71.5759C81.9058 73.8488 78.8897 75.243 75.6085 75.243C75.2515 75.2435 74.8885 75.2262 74.5254 75.1947V75.1947Z" fill="#F9F6F9"/>
<path d="M79.8029 72.0257C78.5209 70.5307 77.5817 68.7102 77.0605 66.731C75.793 67.2438 74.4564 67.5059 73.1169 67.5059C70.6222 67.5059 68.1132 66.6044 66.0016 64.7434C63.1095 62.1967 61.6029 58.4143 61.6029 54.5918C61.6029 53.4769 61.7295 52.3622 61.9888 51.2705C59.5402 50.5331 57.4144 48.9169 55.8991 46.742C54.381 44.5642 53.4736 41.8276 53.4649 38.8517V38.8029C53.4649 32.8629 57.0484 27.8593 61.9284 26.3582C61.6604 25.249 61.528 24.1113 61.528 22.979C61.528 19.1706 63.026 15.3969 65.8981 12.8506C68.0155 10.9751 70.539 10.062 73.0452 10.062C74.376 10.062 75.704 10.3213 76.9628 10.8283C77.4814 8.84937 78.4177 7.02857 79.6965 5.53065C80.2208 4.91697 80.7998 4.35821 81.4335 3.86565C79.6907 2.82011 77.6598 2.22377 75.5138 2.22377C75.1536 2.22377 74.7879 2.24111 74.4191 2.27551C72.5494 2.45126 70.8269 3.06494 69.3434 4.00382C67.86 4.94587 66.6127 6.21052 65.6963 7.69399C63.7605 6.30822 61.4185 5.53354 58.9872 5.53354C57.8119 5.53354 56.6192 5.71507 55.441 6.09518C53.5543 6.70597 51.9352 7.7544 50.6561 9.09103C49.377 10.4277 48.4407 12.0551 47.9224 13.821C46.6636 13.3686 45.3385 13.1382 44.0048 13.1382C41.4986 13.1382 38.9751 13.9505 36.8577 15.627C33.9856 17.8999 32.4877 21.2675 32.4877 24.6695C32.4877 25.6806 32.6201 26.6946 32.888 27.6856C28.0081 29.0251 24.4246 33.4931 24.4246 38.7965V38.8396C24.4332 41.4955 25.3406 43.9384 26.8588 45.8829C28.374 47.8245 30.5027 49.2707 32.9484 49.9275C32.6891 50.9013 32.5625 51.898 32.5625 52.8918C32.5625 56.3053 34.0691 59.6816 36.9612 61.9545C39.0728 63.6166 41.5819 64.4205 44.0736 64.4205C45.416 64.4205 46.7526 64.1872 48.0202 63.729C48.5416 65.4949 49.4808 67.1198 50.7625 68.4564C52.0416 69.7901 53.6632 70.8359 55.5473 71.4409C56.7198 71.8185 57.9067 71.9968 59.0762 71.9968C61.5104 71.9968 63.8582 71.2189 65.7969 69.8277C67.6348 72.792 70.789 74.8892 74.5255 75.2375C74.8885 75.2693 75.2513 75.2863 75.6086 75.2863C77.2504 75.2863 78.8235 74.9377 80.2524 74.3041C80.6816 74.1139 81.0993 73.898 81.5026 73.656C80.8831 73.1721 80.3157 72.6249 79.8029 72.0257V72.0257Z" fill="#E2DFE2"/>
<path d="M65.9047 87.945C65.9047 82.5502 62.9681 78.1613 59.3583 78.1613C55.7485 78.1613 52.8119 82.5502 52.8119 87.945C52.8119 93.3397 55.7488 97.7286 59.3583 97.7286C62.9678 97.7286 65.9047 93.3397 65.9047 87.945Z" fill="black"/>
<path d="M115.188 87.945C115.188 82.5502 112.251 78.1613 108.642 78.1613C105.032 78.1613 102.095 82.5502 102.095 87.945C102.095 93.3397 105.032 97.7286 108.642 97.7286C112.251 97.7286 115.188 93.3397 115.188 87.945Z" fill="black"/>
<path d="M157.209 79.8998L137.002 56.9716C137.42 55.648 137.644 54.2527 137.644 52.8204C137.644 52.2929 137.614 51.767 137.553 51.2456C139.63 50.3298 141.476 48.8964 142.875 47.0906C144.752 44.6717 145.744 41.7733 145.744 38.7084V38.5179C145.724 35.4553 144.714 32.5658 142.824 30.1634C141.415 28.3689 139.563 26.9481 137.485 26.0451C137.541 25.5442 137.569 25.0397 137.569 24.5356C137.569 22.5674 137.135 20.583 136.313 18.7966C135.812 17.7088 134.525 17.2322 133.437 17.7331C132.349 18.2335 131.873 19.521 132.374 20.6087C132.936 21.8309 133.233 23.1886 133.233 24.5356C133.233 25.3389 133.129 26.1422 132.923 26.923C132.619 28.0792 133.308 29.2635 134.463 29.5705C136.405 30.0865 138.163 31.2477 139.415 32.8421C140.705 34.4826 141.394 36.4548 141.408 38.5317V38.7081C141.408 40.8015 140.731 42.781 139.448 44.4332C138.206 46.0358 136.454 47.2088 134.512 47.7361C133.357 48.0494 132.675 49.2395 132.987 50.3946C133.2 51.1814 133.308 51.9974 133.308 52.8201C133.308 55.7047 132.011 58.3834 129.749 60.1681C128.079 61.4842 126.076 62.1799 123.957 62.1799C122.864 62.1799 121.789 61.9926 120.763 61.6232C120.201 61.4212 119.581 61.4596 119.048 61.7296C118.515 61.9996 118.118 62.4774 117.949 63.0503C117.527 64.4832 116.757 65.8106 115.72 66.8922C114.66 68.0025 113.318 68.8411 111.838 69.3178C110.906 69.6187 109.941 69.771 108.969 69.771C107.007 69.771 105.121 69.1631 103.512 68.0132C103.025 67.6646 102.415 67.5334 101.826 67.651C101.238 67.7684 100.726 68.1239 100.409 68.633C99.6599 69.8398 98.634 70.8764 97.4471 71.6285C96.1941 72.4183 94.8066 72.8897 93.3231 73.0299C93.021 73.0585 92.7314 73.0724 92.4374 73.0724C89.8636 73.0724 87.3751 71.9884 85.6103 70.0982C85.2004 69.6591 84.6266 69.41 84.026 69.41C83.4253 69.41 82.8515 69.6591 82.4416 70.0982C81.5704 71.031 80.5387 71.7658 79.3767 72.2807C78.1849 72.8079 76.9173 73.0753 75.6085 73.0753C75.3243 73.0753 75.0231 73.0617 74.7248 73.0354C71.785 72.7625 69.2026 71.1614 67.6396 68.6425C67.3234 68.1326 66.8097 67.7768 66.2212 67.6594C65.6335 67.5426 65.0221 67.6739 64.5345 68.0236C62.9264 69.1764 61.0383 69.7858 59.0741 69.7858C58.1066 69.7858 57.1432 69.634 56.2121 69.3351C54.7321 68.8584 53.3882 68.0205 52.3254 66.9122C51.2948 65.8375 50.5248 64.5089 50.0987 63.0705C49.9293 62.4985 49.5313 62.0213 48.9985 61.7518C48.4658 61.4822 47.8455 61.4446 47.2844 61.6472C46.2501 62.0204 45.1702 62.2094 44.0744 62.2094C41.9599 62.2094 39.9639 61.5174 38.3003 60.2074C36.0306 58.4233 34.729 55.7417 34.729 52.8496C34.729 52.0333 34.8348 51.2236 35.0429 50.4431C35.3516 49.2869 34.6654 48.0994 33.5094 47.7898C31.5704 47.2701 29.8149 46.1037 28.5659 44.5052C27.2813 42.8607 26.5985 40.885 26.5916 38.7983V38.7549C26.5916 34.5528 29.4163 30.8433 33.4608 29.7341C34.6131 29.4182 35.2923 28.229 34.9799 27.0759C34.7634 26.2778 34.6535 25.4534 34.6535 24.6255C34.6535 21.7468 35.9471 19.0703 38.2015 17.2839C39.8725 15.9617 41.8792 15.2628 44.0047 15.2628C45.0979 15.2628 46.1677 15.4489 47.1852 15.8163C47.7472 16.019 48.3687 15.9811 48.902 15.7105C49.4353 15.44 49.8331 14.9613 50.0016 14.3875C50.4213 12.9569 51.1896 11.6284 52.2222 10.5467C53.3047 9.41534 54.611 8.59787 56.1072 8.11601C57.0414 7.81394 58.0101 7.66045 58.9865 7.66045C60.9472 7.66045 62.8308 8.26719 64.4336 9.41448C64.9218 9.76424 65.5338 9.89519 66.122 9.77725C66.7108 9.65902 67.2242 9.30203 67.5399 8.79126C68.2839 7.58702 69.3086 6.54929 70.4993 5.79281C71.7501 5.00194 73.1367 4.5299 74.6207 4.38999C74.9185 4.36166 75.2174 4.3475 75.5093 4.3475C78.0849 4.3475 80.5734 5.43062 82.3364 7.31877C82.7463 7.75786 83.3204 8.00703 83.921 8.00703H83.9216C84.5226 8.00703 85.0964 7.75728 85.5063 7.31762C87.2747 5.42281 89.7682 4.33594 92.3481 4.33594C92.6556 4.33594 92.9386 4.34866 93.2202 4.37583C94.706 4.51371 96.0932 4.98315 97.3434 5.77113C98.5369 6.52356 99.5619 7.55725 100.307 8.76091C100.623 9.27197 101.138 9.62867 101.727 9.74603C102.316 9.8631 102.928 9.73042 103.416 9.3795C104.996 8.24262 106.936 7.6168 108.877 7.6168C109.846 7.6168 110.808 7.76769 111.736 8.06542C113.212 8.53891 114.556 9.37488 115.619 10.4817C116.653 11.5593 117.425 12.8879 117.853 14.3233C118.023 14.896 118.423 15.3729 118.957 15.6415C119.49 15.91 120.111 15.9461 120.673 15.7415C121.703 15.3663 122.784 15.1758 123.888 15.1758C125.232 15.1758 126.526 15.4553 127.735 16.0065C128.824 16.5034 130.11 16.023 130.607 14.9335C131.104 13.8441 130.623 12.5583 129.534 12.0614C127.757 11.2509 125.857 10.8398 123.888 10.8398C122.994 10.8398 122.11 10.9254 121.242 11.0954C120.61 9.76742 119.766 8.54064 118.748 7.47891C117.186 5.8538 115.219 4.62876 113.06 3.93674C111.705 3.5017 110.297 3.28086 108.877 3.28086C106.715 3.28086 104.621 3.78209 102.719 4.74409C101.834 3.7185 100.798 2.82298 99.6556 2.10322C97.8229 0.947836 95.7923 0.260156 93.6278 0.0592578C93.2199 0.0199453 92.7895 0 92.3481 0C89.2889 0 86.3139 1.04207 83.9208 2.90999C81.1975 0.789141 77.7334 -0.259289 74.2143 0.0734219C72.0452 0.277789 70.016 0.969226 68.179 2.13068C67.0395 2.85478 66.0058 3.75232 65.1233 4.77791C63.2262 3.82227 61.1392 3.32451 58.9874 3.32451C57.5571 3.32451 56.1392 3.54853 54.776 3.98964C52.6199 4.68397 50.6537 5.9148 49.0884 7.55089C48.0715 8.61637 47.2303 9.84489 46.6016 11.1726C45.7503 11.0092 44.8826 10.9266 44.0053 10.9266C40.8932 10.9266 37.9561 11.949 35.5103 13.8843C32.2107 16.4994 30.3182 20.4142 30.3182 24.6252C30.3182 25.1617 30.3497 25.6974 30.4124 26.2292C25.5255 28.3903 22.2562 33.2879 22.2562 38.7546V38.8052C22.2663 41.8701 23.2668 44.7642 25.1497 47.1744C26.5557 48.9741 28.4049 50.4001 30.4797 51.308C30.4222 51.8185 30.3933 52.333 30.3933 52.8493C30.3933 54.2628 30.6107 55.6405 31.0177 56.9482L10.7911 79.9001C10.3838 80.3623 10.1925 80.9762 10.2647 81.5879C10.337 82.1998 10.6665 82.7519 11.1704 83.1063C11.3184 83.2104 14.8594 85.6723 20.3287 87.0321C22.6938 87.6201 25.0601 87.912 27.4024 87.912C31.34 87.912 35.2074 87.0856 38.8753 85.4518C39.8913 89.231 41.3794 92.8625 43.3156 96.2795C46.3629 101.66 48.0712 107.584 48.2556 113.408C48.3964 117.958 49.3824 122.37 51.1862 126.522C51.5411 127.339 52.3384 127.827 53.1758 127.827C53.4643 127.827 53.7571 127.769 54.0386 127.647C55.1368 127.17 55.6403 125.893 55.1631 124.794C53.5793 121.149 52.7133 117.273 52.5896 113.272C52.3829 106.747 50.4806 100.132 47.0884 94.1422C44.9138 90.304 43.3615 86.1678 42.4756 81.8486C41.9133 79.1074 41.6228 76.2876 41.6121 73.467C41.602 71.1013 41.7879 68.7365 42.1637 66.4107C42.7915 66.498 43.4292 66.5445 44.0749 66.5445C44.9612 66.5445 45.8399 66.4598 46.7042 66.2916C47.3361 67.623 48.1793 68.8515 49.1963 69.9121C50.7552 71.5378 52.7217 72.7648 54.8856 73.4618C56.2476 73.8988 57.6568 74.1205 59.0747 74.1205C61.2305 74.1205 63.3222 73.6205 65.2239 72.6608C67.5208 75.3398 70.7424 77.0193 74.3357 77.3525C74.7705 77.3907 75.1986 77.4101 75.6088 77.4101C77.5255 77.4101 79.3833 77.0181 81.1325 76.2443C82.1737 75.7827 83.1423 75.2016 84.0289 74.5076C86.4185 76.3689 89.3864 77.4072 92.438 77.4072C92.8635 77.4072 93.2991 77.3864 93.7315 77.3456C95.8674 77.1438 97.9518 76.4351 99.764 75.293C100.903 74.5715 101.937 73.6745 102.823 72.6481C104.725 73.6066 106.815 74.1061 108.969 74.1061C110.394 74.1061 111.808 73.8832 113.169 73.4436C115.333 72.7466 117.3 71.5161 118.854 69.8887C119.873 68.8255 120.717 67.5964 121.348 66.2664C122.205 66.4318 123.077 66.515 123.957 66.515C124.589 66.515 125.212 66.4708 125.827 66.3873C126.199 68.6607 126.388 70.975 126.388 73.2935C126.388 76.1657 126.097 79.0427 125.522 81.846C124.62 86.2534 123.023 90.4716 120.774 94.3838C117.474 100.122 115.621 106.653 115.414 113.269C115.161 121.287 111.897 128.83 106.225 134.507C100.829 139.902 93.7735 143.081 86.1679 143.589V134.495L94.8436 125.819C95.6902 124.973 95.6902 123.6 94.8436 122.754C93.9969 121.907 92.6241 121.907 91.7778 122.754L84 130.531L76.2222 122.754C75.3755 121.907 74.0027 121.907 73.1564 122.754C72.3097 123.6 72.3097 124.973 73.1564 125.819L81.832 134.495V143.59C74.2265 143.082 67.1707 139.903 61.7748 134.509C60.7663 133.5 59.8179 132.413 58.9565 131.279C58.2321 130.325 56.8723 130.14 55.9187 130.864C54.9651 131.588 54.7792 132.948 55.5033 133.901C56.4832 135.192 57.5617 136.427 58.709 137.575C65.4335 144.297 74.4152 148 84 148C93.5847 148 102.566 144.297 109.292 137.574C115.746 131.114 119.46 122.531 119.747 113.406C119.932 107.499 121.587 101.669 124.533 96.5463C126.544 93.0469 128.083 89.3252 129.123 85.4503C132.793 87.085 136.661 87.9117 140.6 87.9114C142.941 87.9114 145.307 87.6195 147.671 87.0321C153.141 85.6729 156.682 83.2107 156.83 83.1066C157.334 82.7522 157.663 82.1998 157.735 81.5882C157.807 80.9759 157.616 80.3623 157.209 79.8998V79.8998ZM37.93 81.1049C32.7495 83.6501 27.2408 84.2458 21.5309 82.8629C19.1473 82.2854 17.1754 81.4558 15.8017 80.7724L33.1466 61.0905C33.8505 62.0215 34.6755 62.8725 35.6193 63.6146C36.3653 64.2022 37.158 64.704 37.987 65.1186C37.5054 67.8725 37.2638 70.6784 37.2759 73.4852C37.2857 76.0405 37.5077 78.5958 37.93 81.1049V81.1049ZM146.469 82.8624C140.759 84.245 135.249 83.6483 130.067 81.1023C130.501 78.5285 130.724 75.9098 130.724 73.2947C130.724 70.5457 130.479 67.8016 130.004 65.1116C130.855 64.6902 131.669 64.1759 132.434 63.5726C133.358 62.8436 134.167 62.01 134.861 61.0994L152.198 80.7722C150.824 81.4558 148.852 82.2854 146.469 82.8624V82.8624Z" fill="black"/>
</g>
<defs>
<clipPath id="clip0">
<rect x="10" width="148" height="148" fill="white"/>
</clipPath>
</defs>
</svg>
