<svg width="167" height="229" viewBox="0 0 167 229" fill="none" xmlns="http://www.w3.org/2000/svg">
<rect x="29.5" y="168.5" width="19" height="58" rx="2.5" fill="white" stroke="black" stroke-width="5"/>
<rect x="114.5" y="168.5" width="19" height="58" rx="2.5" fill="white" stroke="black" stroke-width="5"/>
<path d="M2.5 128C2.5 118.335 10.335 110.5 20 110.5H21.5V167.5H2.5V128Z" fill="white" stroke="black" stroke-width="5"/>
<path d="M145.5 110.5H147C156.665 110.5 164.5 118.335 164.5 128V167.5H145.5V110.5Z" fill="white" stroke="black" stroke-width="5"/>
<path d="M16.5 124C16.5 114.335 24.335 106.5 34 106.5H133C142.665 106.5 150.5 114.335 150.5 124V187.5H16.5V124Z" fill="#EEEEEE" stroke="black" stroke-width="5"/>
<g clip-path="url(#clip0)">
<path d="M132.25 55.9911L154.582 81.3335C154.582 81.3335 140.456 91.2692 125.077 81.3335H40.9229C25.5439 91.2692 11.4177 81.3335 11.4177 81.3335L33.7501 55.9911" fill="#F1B986"/>
<path d="M127.556 73.2938C127.556 48.5865 107.445 28.5761 82.6997 28.7392C58.0348 28.9016 38.3448 48.8128 38.4448 73.4782C38.4769 81.3777 40.5653 88.7913 44.2023 95.2129C47.3485 100.768 49.2219 106.96 49.4213 113.341C49.6789 121.583 52.9522 129.748 59.2434 136.039C72.2995 149.095 93.7008 149.095 106.757 136.039C113.049 129.747 116.322 121.581 116.579 113.339C116.775 107.057 118.52 100.915 121.653 95.4661C125.408 88.9367 127.556 81.3665 127.556 73.2938V73.2938Z" fill="#F1D0A5"/>
<path d="M83 145.832C74.3839 145.832 65.7707 142.568 59.2428 136.041C52.9514 129.749 49.6789 121.582 49.4225 113.341C49.2207 106.96 47.3485 100.769 44.2026 95.2126C40.5642 88.7916 38.4757 81.3766 38.4442 73.478C38.3433 48.8134 58.0357 28.9022 82.7003 28.7406H82.8702C72.2232 28.9019 63.725 48.8134 63.7684 73.478C63.7828 81.3769 64.6844 88.7916 66.2543 95.2126C67.6112 100.769 68.4206 106.96 68.507 113.341C68.6166 121.583 70.0309 129.749 72.7444 136.041C75.565 142.568 79.2809 145.832 83 145.832Z" fill="#F1B986"/>
<path d="M73.5254 75.1947C69.789 74.8461 66.6347 72.7489 64.7969 69.7846C61.9305 71.8416 58.1626 72.5587 54.5476 71.3978C50.7797 70.1878 48.0631 67.218 47.0201 63.6862C43.399 64.9969 39.2079 64.467 35.9612 61.9117C32.2279 58.9763 30.7988 54.2001 31.9484 49.8847C27.054 48.5683 23.4419 44.1089 23.4245 38.7971C23.4043 33.4763 26.9936 28.9854 31.888 27.643C30.7155 23.3276 32.1299 18.5344 35.8574 15.5845C39.1013 13.0176 43.2982 12.4733 46.9221 13.7784C47.9593 10.2467 50.6698 7.27107 54.4406 6.05239C58.0559 4.88573 61.8268 5.59711 64.696 7.65119C66.5281 4.68686 69.6794 2.58422 73.4188 2.23272C77.1147 1.88411 80.5687 3.32161 82.9223 5.83935C85.2729 3.31872 88.7237 1.87572 92.4197 2.21826C96.1587 2.56398 99.3133 4.65824 101.151 7.61968C104.015 5.56272 107.783 4.84266 111.398 6.00065C115.169 7.21066 117.882 10.1747 118.931 13.7036C122.546 12.3901 126.741 12.9144 129.99 15.4637C133.723 18.3933 135.158 23.1637 134.02 27.476C138.917 28.7779 142.538 33.2231 142.576 38.532V38.6268V38.7075C142.576 44.0222 138.975 48.4989 134.081 49.8297C135.242 54.1423 133.822 58.9271 130.091 61.8712C126.844 64.432 122.65 64.9679 119.029 63.6628C117.986 67.1946 115.275 70.1644 111.505 71.3802C107.889 72.544 104.122 71.8297 101.252 69.7756C99.4173 72.7368 96.2657 74.8368 92.5267 75.1883C88.8307 75.534 85.3796 74.0936 83.026 71.5759C80.9058 73.8488 77.8897 75.243 74.6085 75.243C74.2515 75.2435 73.8885 75.2262 73.5254 75.1947V75.1947Z" fill="#F9F6F9"/>
<path d="M78.8028 72.0257C77.5208 70.5307 76.5817 68.7102 76.0605 66.731C74.793 67.2438 73.4563 67.5059 72.1168 67.5059C69.6222 67.5059 67.1131 66.6044 65.0015 64.7434C62.1095 62.1967 60.6029 58.4143 60.6029 54.5918C60.6029 53.4769 60.7295 52.3622 60.9888 51.2705C58.5401 50.5331 56.4144 48.9169 54.8991 46.742C53.3809 44.5642 52.4736 41.8276 52.4649 38.8517V38.8029C52.4649 32.8629 56.0484 27.8593 60.9284 26.3582C60.6604 25.249 60.528 24.1113 60.528 22.979C60.528 19.1706 62.0259 15.3969 64.8981 12.8506C67.0154 10.9751 69.539 10.062 72.0451 10.062C73.376 10.062 74.7039 10.3213 75.9628 10.8283C76.4814 8.84937 77.4176 7.02857 78.6965 5.53065C79.2208 4.91697 79.7998 4.35821 80.4334 3.86565C78.6907 2.82011 76.6597 2.22377 74.5137 2.22377C74.1536 2.22377 73.7879 2.24111 73.419 2.27551C71.5494 2.45126 69.8269 3.06494 68.3434 4.00382C66.8599 4.94587 65.6126 6.21052 64.6963 7.69399C62.7604 6.30822 60.4185 5.53354 57.9872 5.53354C56.8118 5.53354 55.6192 5.71507 54.4409 6.09518C52.5542 6.70597 50.9352 7.7544 49.6561 9.09103C48.377 10.4277 47.4407 12.0551 46.9224 13.821C45.6636 13.3686 44.3385 13.1382 43.0048 13.1382C40.4986 13.1382 37.9751 13.9505 35.8577 15.627C32.9856 17.8999 31.4876 21.2675 31.4876 24.6695C31.4876 25.6806 31.62 26.6946 31.888 27.6856C27.008 29.0251 23.4245 33.4931 23.4245 38.7965V38.8396C23.4332 41.4955 24.3406 43.9384 25.8587 45.8829C27.374 47.8245 29.5026 49.2707 31.9484 49.9275C31.6891 50.9013 31.5625 51.898 31.5625 52.8918C31.5625 56.3053 33.0691 59.6816 35.9612 61.9545C38.0728 63.6166 40.5818 64.4205 43.0736 64.4205C44.416 64.4205 45.7526 64.1872 47.0201 63.729C47.5416 65.4949 48.4808 67.1198 49.7625 68.4564C51.0416 69.7901 52.6632 70.8359 54.5473 71.4409C55.7197 71.8185 56.9066 71.9968 58.0762 71.9968C60.5104 71.9968 62.8581 71.2189 64.7969 69.8277C66.6347 72.792 69.789 74.8892 73.5254 75.2375C73.8885 75.2693 74.2513 75.2863 74.6085 75.2863C76.2504 75.2863 77.8235 74.9377 79.2523 74.3041C79.6816 74.1139 80.0993 73.898 80.5025 73.656C79.8831 73.1721 79.3156 72.6249 78.8028 72.0257V72.0257Z" fill="#E2DFE2"/>
<path d="M64.9047 87.945C64.9047 82.5502 61.9681 78.1613 58.3583 78.1613C54.7485 78.1613 51.8119 82.5502 51.8119 87.945C51.8119 93.3397 54.7488 97.7286 58.3583 97.7286C61.9678 97.7286 64.9047 93.3397 64.9047 87.945Z" fill="black"/>
<path d="M114.188 87.945C114.188 82.5502 111.252 78.1613 107.642 78.1613C104.032 78.1613 101.095 82.5502 101.095 87.945C101.095 93.3397 104.032 97.7286 107.642 97.7286C111.252 97.7286 114.188 93.3397 114.188 87.945Z" fill="black"/>
<path d="M156.209 79.8998L136.002 56.9716C136.42 55.648 136.644 54.2527 136.644 52.8204C136.644 52.2929 136.614 51.767 136.553 51.2456C138.63 50.3298 140.476 48.8964 141.875 47.0906C143.752 44.6717 144.744 41.7733 144.744 38.7084V38.5179C144.724 35.4553 143.714 32.5658 141.824 30.1634C140.415 28.3689 138.563 26.9481 136.485 26.0451C136.541 25.5442 136.569 25.0397 136.569 24.5356C136.569 22.5674 136.135 20.583 135.313 18.7966C134.812 17.7088 133.525 17.2322 132.437 17.7331C131.349 18.2335 130.873 19.521 131.374 20.6087C131.936 21.8309 132.233 23.1886 132.233 24.5356C132.233 25.3389 132.129 26.1422 131.923 26.923C131.619 28.0792 132.308 29.2635 133.463 29.5705C135.405 30.0865 137.163 31.2477 138.415 32.8421C139.705 34.4826 140.394 36.4548 140.408 38.5317V38.7081C140.408 40.8015 139.731 42.781 138.448 44.4332C137.206 46.0358 135.454 47.2088 133.512 47.7361C132.357 48.0494 131.675 49.2395 131.987 50.3946C132.2 51.1814 132.308 51.9974 132.308 52.8201C132.308 55.7047 131.011 58.3834 128.749 60.1681C127.079 61.4842 125.076 62.1799 122.957 62.1799C121.864 62.1799 120.789 61.9926 119.763 61.6232C119.201 61.4212 118.581 61.4596 118.048 61.7296C117.515 61.9996 117.118 62.4774 116.949 63.0503C116.527 64.4832 115.757 65.8106 114.72 66.8922C113.66 68.0025 112.318 68.8411 110.838 69.3178C109.907 69.6187 108.941 69.771 107.969 69.771C106.007 69.771 104.121 69.1631 102.512 68.0132C102.025 67.6646 101.415 67.5334 100.826 67.651C100.239 67.7684 99.7257 68.1239 99.4095 68.633C98.66 69.8398 97.6341 70.8764 96.4472 71.6285C95.1941 72.4183 93.8066 72.8897 92.3231 73.0299C92.021 73.0585 91.7314 73.0724 91.4374 73.0724C88.8636 73.0724 86.3751 71.9884 84.6104 70.0982C84.2005 69.6591 83.6267 69.41 83.026 69.41C82.4253 69.41 81.8515 69.6591 81.4417 70.0982C80.5704 71.031 79.5388 71.7658 78.3767 72.2807C77.1849 72.8079 75.9174 73.0753 74.6085 73.0753C74.3244 73.0753 74.0232 73.0617 73.7248 73.0354C70.7851 72.7625 68.2026 71.1614 66.6396 68.6425C66.3234 68.1326 65.8097 67.7768 65.2212 67.6594C64.6335 67.5426 64.0222 67.6739 63.5345 68.0236C61.9265 69.1764 60.0383 69.7858 58.0741 69.7858C57.1066 69.7858 56.1432 69.634 55.2121 69.3351C53.7321 68.8584 52.3883 68.0205 51.3254 66.9122C50.2949 65.8375 49.5248 64.5089 49.0987 63.0705C48.9293 62.4985 48.5313 62.0213 47.9986 61.7518C47.4658 61.4822 46.8455 61.4446 46.2844 61.6472C45.2502 62.0204 44.1702 62.2094 43.0744 62.2094C40.9599 62.2094 38.9639 61.5174 37.3004 60.2074C35.0306 58.4233 33.729 55.7417 33.729 52.8496C33.729 52.0333 33.8348 51.2236 34.0429 50.4431C34.3516 49.2869 33.6654 48.0994 32.5094 47.7898C30.5704 47.2701 28.8149 46.1037 27.5659 44.5052C26.2813 42.8607 25.5985 40.885 25.5916 38.7983V38.7549C25.5916 34.5528 28.4163 30.8433 32.4609 29.7341C33.6131 29.4182 34.2924 28.229 33.9799 27.0759C33.7634 26.2778 33.6536 25.4534 33.6536 24.6255C33.6536 21.7468 34.9471 19.0703 37.2015 17.2839C38.8726 15.9617 40.8792 15.2628 43.0047 15.2628C44.098 15.2628 45.1678 15.4489 46.1853 15.8163C46.7472 16.019 47.3687 15.9811 47.902 15.7105C48.4353 15.44 48.8331 14.9613 49.0016 14.3875C49.4213 12.9569 50.1897 11.6284 51.2222 10.5467C52.3047 9.41534 53.611 8.59787 55.1072 8.11601C56.0414 7.81394 57.0101 7.66045 57.9865 7.66045C59.9473 7.66045 61.8308 8.26719 63.4336 9.41448C63.9219 9.76424 64.5338 9.89519 65.122 9.77725C65.7109 9.65902 66.2242 9.30203 66.5399 8.79126C67.284 7.58702 68.3087 6.54929 69.4993 5.79281C70.7501 5.00194 72.1367 4.5299 73.6208 4.38999C73.9185 4.36166 74.2174 4.3475 74.5094 4.3475C77.0849 4.3475 79.5734 5.43062 81.3364 7.31877C81.7463 7.75786 82.3204 8.00703 82.9211 8.00703H82.9217C83.5226 8.00703 84.0964 7.75728 84.5063 7.31762C86.2748 5.42281 88.7682 4.33594 91.3481 4.33594C91.6557 4.33594 91.9387 4.34866 92.2202 4.37583C93.706 4.51371 95.0932 4.98315 96.3434 5.77113C97.5369 6.52356 98.562 7.55725 99.3072 8.76091C99.6234 9.27197 100.138 9.62867 100.727 9.74603C101.316 9.8631 101.928 9.73042 102.416 9.3795C103.996 8.24262 105.936 7.6168 107.877 7.6168C108.846 7.6168 109.808 7.76769 110.736 8.06542C112.212 8.53891 113.556 9.37488 114.619 10.4817C115.653 11.5593 116.425 12.8879 116.853 14.3233C117.023 14.896 117.423 15.3729 117.957 15.6415C118.491 15.91 119.111 15.9461 119.673 15.7415C120.703 15.3663 121.784 15.1758 122.888 15.1758C124.232 15.1758 125.526 15.4553 126.735 16.0065C127.824 16.5034 129.11 16.023 129.607 14.9335C130.104 13.8441 129.623 12.5583 128.534 12.0614C126.757 11.2509 124.857 10.8398 122.888 10.8398C121.995 10.8398 121.11 10.9254 120.243 11.0954C119.61 9.76742 118.766 8.54064 117.748 7.47891C116.186 5.8538 114.219 4.62876 112.06 3.93674C110.705 3.5017 109.297 3.28086 107.877 3.28086C105.715 3.28086 103.621 3.78209 101.719 4.74409C100.834 3.7185 99.7977 2.82298 98.6556 2.10322C96.823 0.947836 94.7923 0.260156 92.6278 0.0592578C92.2199 0.0199453 91.7895 0 91.3481 0C88.289 0 85.3139 1.04207 82.9208 2.90999C80.1975 0.789141 76.7334 -0.259289 73.2144 0.0734219C71.0452 0.277789 69.016 0.969226 67.179 2.13068C66.0395 2.85478 65.0058 3.75232 64.1233 4.77791C62.2262 3.82227 60.1392 3.32451 57.9874 3.32451C56.5571 3.32451 55.1393 3.54853 53.7761 3.98964C51.6199 4.68397 49.6537 5.9148 48.0885 7.55089C47.0715 8.61637 46.2304 9.84489 45.6017 11.1726C44.7504 11.0092 43.8826 10.9266 43.0053 10.9266C39.8933 10.9266 36.9561 11.949 34.5103 13.8843C31.2107 16.4994 29.3182 20.4142 29.3182 24.6252C29.3182 25.1617 29.3497 25.6974 29.4124 26.2292C24.5255 28.3903 21.2562 33.2879 21.2562 38.7546V38.8052C21.2664 41.8701 22.2668 44.7642 24.1498 47.1744C25.5558 48.9741 27.4049 50.4001 29.4798 51.308C29.4223 51.8185 29.3933 52.333 29.3933 52.8493C29.3933 54.2628 29.6107 55.6405 30.0177 56.9482L9.79115 79.9001C9.38386 80.3623 9.1925 80.9762 9.26477 81.5879C9.33703 82.1998 9.66657 82.7519 10.1704 83.1063C10.3184 83.2104 13.8594 85.6723 19.3288 87.0321C21.6939 87.6201 24.0601 87.912 26.4024 87.912C30.34 87.912 34.2074 87.0856 37.8753 85.4518C38.8914 89.231 40.3795 92.8625 42.3156 96.2795C45.3629 101.66 47.0713 107.584 47.2557 113.408C47.3964 117.958 48.3824 122.37 50.1862 126.522C50.5412 127.339 51.3384 127.827 52.1758 127.827C52.4643 127.827 52.7571 127.769 53.0387 127.647C54.1368 127.17 54.6404 125.893 54.1631 124.794C52.5793 121.149 51.7133 117.273 51.5896 113.272C51.3829 106.747 49.4806 100.132 46.0884 94.1422C43.9138 90.304 42.3616 86.1678 41.4756 81.8486C40.9134 79.1074 40.6228 76.2876 40.6122 73.467C40.602 71.1013 40.7879 68.7365 41.1637 66.4107C41.7915 66.498 42.4292 66.5445 43.075 66.5445C43.9612 66.5445 44.84 66.4598 45.7043 66.2916C46.3362 67.623 47.1794 68.8515 48.1963 69.9121C49.7552 71.5378 51.7217 72.7648 53.8856 73.4618C55.2477 73.8988 56.6569 74.1205 58.0747 74.1205C60.2305 74.1205 62.3222 73.6205 64.2239 72.6608C66.5208 75.3398 69.7424 77.0193 73.3358 77.3525C73.7705 77.3907 74.1986 77.4101 74.6088 77.4101C76.5256 77.4101 78.3834 77.0181 80.1325 76.2443C81.1737 75.7827 82.1423 75.2016 83.0289 74.5076C85.4186 76.3689 88.3864 77.4072 91.438 77.4072C91.8635 77.4072 92.2991 77.3864 92.7316 77.3456C94.8674 77.1438 96.9519 76.4351 98.764 75.293C99.9026 74.5715 100.937 73.6745 101.823 72.6481C103.725 73.6066 105.815 74.1061 107.969 74.1061C109.394 74.1061 110.808 73.8832 112.169 73.4436C114.333 72.7466 116.3 71.5161 117.854 69.8887C118.873 68.8255 119.717 67.5964 120.348 66.2664C121.205 66.4318 122.077 66.515 122.957 66.515C123.589 66.515 124.212 66.4708 124.827 66.3873C125.199 68.6607 125.388 70.975 125.388 73.2935C125.388 76.1657 125.097 79.0427 124.522 81.846C123.62 86.2534 122.023 90.4716 119.774 94.3838C116.474 100.122 114.621 106.653 114.414 113.269C114.161 121.287 110.897 128.83 105.225 134.507C99.8292 139.902 92.7735 143.081 85.168 143.589V134.495L93.8436 125.819C94.6903 124.973 94.6903 123.6 93.8436 122.754C92.9969 121.907 91.6242 121.907 90.7778 122.754L83 130.531L75.2222 122.754C74.3755 121.907 73.0028 121.907 72.1564 122.754C71.3097 123.6 71.3097 124.973 72.1564 125.819L80.832 134.495V143.59C73.2265 143.082 66.1708 139.903 60.7748 134.509C59.7663 133.5 58.8179 132.413 57.9565 131.279C57.2321 130.325 55.8723 130.14 54.9187 130.864C53.9651 131.588 53.7792 132.948 54.5033 133.901C55.4833 135.192 56.5618 136.427 57.709 137.575C64.4335 144.297 73.4153 148 83 148C92.5847 148 101.566 144.297 108.292 137.574C114.746 131.114 118.46 122.531 118.747 113.406C118.932 107.499 120.587 101.669 123.533 96.5463C125.544 93.0469 127.083 89.3252 128.124 85.4503C131.793 87.085 135.661 87.9117 139.6 87.9114C141.941 87.9114 144.307 87.6195 146.671 87.0321C152.141 85.6729 155.682 83.2107 155.83 83.1066C156.334 82.7522 156.663 82.1998 156.735 81.5882C156.807 80.9759 156.616 80.3623 156.209 79.8998V79.8998ZM36.9301 81.1049C31.7495 83.6501 26.2408 84.2458 20.531 82.8629C18.1474 82.2854 16.1754 81.4558 14.8018 80.7724L32.1467 61.0905C32.8505 62.0215 33.6755 62.8725 34.6193 63.6146C35.3654 64.2022 36.158 64.704 36.987 65.1186C36.5054 67.8725 36.2638 70.6784 36.2759 73.4852C36.2858 76.0405 36.5078 78.5958 36.9301 81.1049V81.1049ZM145.469 82.8624C139.759 84.245 134.249 83.6483 129.067 81.1023C129.501 78.5285 129.724 75.9098 129.724 73.2947C129.724 70.5457 129.48 67.8016 129.004 65.1116C129.855 64.6902 130.669 64.1759 131.434 63.5726C132.358 62.8436 133.167 62.01 133.861 61.0994L151.198 80.7722C149.824 81.4558 147.852 82.2854 145.469 82.8624V82.8624Z" fill="black"/>
</g>
<defs>
<clipPath id="clip0">
<rect x="9" width="148" height="148" fill="white"/>
</clipPath>
</defs>
</svg>
