<svg width="177" height="233" viewBox="0 0 177 233" fill="none" xmlns="http://www.w3.org/2000/svg">
<rect x="34.5" y="172.5" width="19" height="58" rx="2.5" fill="white" stroke="black" stroke-width="5"/>
<rect x="119.5" y="172.5" width="19" height="58" rx="2.5" fill="white" stroke="black" stroke-width="5"/>
<path d="M7.5 132C7.5 122.335 15.335 114.5 25 114.5H26.5V171.5H7.5V132Z" fill="white" stroke="black" stroke-width="5"/>
<path d="M150.5 114.5H152C161.665 114.5 169.5 122.335 169.5 132V171.5H150.5V114.5Z" fill="white" stroke="black" stroke-width="5"/>
<path d="M21.5 128C21.5 118.335 29.335 110.5 39 110.5H138C147.665 110.5 155.5 118.335 155.5 128V191.5H21.5V128Z" fill="white" stroke="black" stroke-width="5"/>
<path d="M12.8593 115.442C12.6449 114.347 12.5782 113.571 12.6077 113.027C12.6365 112.497 12.7479 112.34 12.7593 112.324C12.767 112.313 12.7833 112.292 12.8325 112.259C12.8872 112.223 12.9974 112.162 13.1974 112.098C13.6206 111.964 14.3094 111.859 15.394 111.859H39.4053C40.786 111.859 41.9053 112.978 41.9053 114.359V215.035C41.9053 217.322 39.0883 218.409 37.5527 216.714L24.75 202.584C24.3333 202.124 24.1026 201.526 24.1026 200.905V163.51C24.1026 161.831 23.4519 160.364 22.675 159.168C21.8997 157.974 20.888 156.882 19.9226 155.923C19.4331 155.437 18.9303 154.961 18.4535 154.51L18.3688 154.43C17.916 154.002 17.4895 153.599 17.0852 153.201C16.2057 152.336 15.5711 151.629 15.1841 151.02C13.735 148.742 12.4125 143.382 13.2942 131.718C13.8366 124.54 13.6104 119.278 12.8593 115.442Z" fill="#E49F5C" stroke="black" stroke-width="5"/>
<line x1="41.9715" y1="110.507" x2="29.8129" y2="141.168" stroke="black" stroke-width="5"/>
<line x1="28.5307" y1="138.503" x2="34.778" y2="141.366" stroke="black" stroke-width="5"/>
<line x1="33.6444" y1="141.776" x2="31.0012" y2="155.521" stroke="black" stroke-width="5"/>
<line x1="29.9693" y1="152.464" x2="43.7138" y2="161.98" stroke="black" stroke-width="5"/>
<path d="M163.546 115.442C163.76 114.347 163.827 113.571 163.798 113.027C163.769 112.497 163.657 112.34 163.646 112.324C163.638 112.313 163.622 112.292 163.573 112.259C163.518 112.223 163.408 112.162 163.208 112.098C162.785 111.964 162.096 111.859 161.011 111.859H137C135.619 111.859 134.5 112.978 134.5 114.359V215.035C134.5 217.322 137.317 218.409 138.853 216.714L151.655 202.584C152.072 202.124 152.303 201.526 152.303 200.905V163.51C152.303 161.831 152.953 160.364 153.73 159.168C154.506 157.974 155.517 156.882 156.483 155.923C156.972 155.437 157.475 154.961 157.952 154.51L158.036 154.43C158.489 154.002 158.916 153.599 159.32 153.201C160.2 152.336 160.834 151.629 161.221 151.02C162.67 148.742 163.993 143.382 163.111 131.718C162.569 124.54 162.795 119.278 163.546 115.442Z" fill="#E49F5C" stroke="black" stroke-width="5"/>
<line y1="-2.5" x2="32.9836" y2="-2.5" transform="matrix(0.368626 0.929578 0.929578 -0.368626 136.758 109.586)" stroke="black" stroke-width="5"/>
<line y1="-2.5" x2="6.87225" y2="-2.5" transform="matrix(-0.909065 0.416655 0.416655 0.909065 148.916 140.775)" stroke="black" stroke-width="5"/>
<line y1="-2.5" x2="13.9963" y2="-2.5" transform="matrix(0.188847 0.982006 0.982006 -0.188847 145.216 141.304)" stroke="black" stroke-width="5"/>
<line y1="-2.5" x2="16.7169" y2="-2.5" transform="matrix(-0.822192 0.56921 0.56921 0.822192 147.859 154.52)" stroke="black" stroke-width="5"/>
<g clip-path="url(#clip0)">
<path d="M139.25 55.9911L161.582 81.3335C161.582 81.3335 147.456 91.2692 132.077 81.3335H47.9229C32.5439 91.2692 18.4177 81.3335 18.4177 81.3335L40.7501 55.9911" fill="#F1B986"/>
<path d="M134.555 73.2938C134.555 48.5865 114.445 28.5761 89.6996 28.7392C65.0348 28.9016 45.3447 48.8128 45.4447 73.4782C45.4768 81.3777 47.5653 88.7913 51.2023 95.2129C54.3484 100.768 56.2218 106.96 56.4213 113.341C56.6788 121.583 59.9522 129.748 66.2433 136.039C79.2994 149.095 100.701 149.095 113.757 136.039C120.049 129.747 123.322 121.581 123.579 113.339C123.775 107.057 125.52 100.915 128.653 95.4661C132.408 88.9367 134.555 81.3665 134.555 73.2938V73.2938Z" fill="#F1D0A5"/>
<path d="M89.9999 145.832C81.3838 145.832 72.7706 142.568 66.2427 136.041C59.9513 129.749 56.6788 121.582 56.4224 113.341C56.2207 106.96 54.3484 100.77 51.2025 95.2126C47.5641 88.7916 45.4756 81.3766 45.4441 73.478C45.3432 48.8134 65.0356 28.9022 89.7002 28.7406H89.8701C79.2231 28.9019 70.7249 48.8134 70.7683 73.478C70.7828 81.3769 71.6843 88.7916 73.2542 95.2126C74.6111 100.77 75.4205 106.96 75.5069 113.341C75.6165 121.583 77.0308 129.749 79.7443 136.041C82.5649 142.568 86.2808 145.832 89.9999 145.832Z" fill="#F1B986"/>
<path d="M80.5254 75.1947C76.7889 74.8461 73.6347 72.7489 71.7968 69.7846C68.9305 71.8416 65.1626 72.5587 61.5475 71.3978C57.7796 70.1878 55.063 67.218 54.0201 63.6862C50.399 64.9968 46.2079 64.467 42.9611 61.9117C39.2279 58.9763 37.7987 54.2001 38.9483 49.8847C34.0539 48.5683 30.4418 44.1089 30.4245 38.7971C30.4042 33.4763 33.9935 28.9854 38.8879 27.643C37.7155 23.3276 39.1299 18.5344 42.8573 15.5845C46.1012 13.0176 50.2981 12.4733 53.9221 13.7784C54.9592 10.2467 57.6698 7.27107 61.4406 6.05239C65.0559 4.88573 68.8267 5.59711 71.6959 7.65119C73.528 4.68685 76.6794 2.58421 80.4187 2.23271C84.1146 1.8841 87.5687 3.32161 89.9222 5.83935C92.2729 3.31872 95.7237 1.87572 99.4196 2.21826C103.159 2.56398 106.313 4.65824 108.151 7.61968C111.015 5.56271 114.782 4.84266 118.398 6.00064C122.169 7.21066 124.882 10.1747 125.931 13.7036C129.546 12.3901 133.741 12.9144 136.99 15.4637C140.723 18.3933 142.158 23.1637 141.02 27.476C145.917 28.7779 149.538 33.2231 149.576 38.532V38.6268V38.7075C149.576 44.0222 145.975 48.4989 141.081 49.8297C142.242 54.1423 140.821 58.9271 137.091 61.8712C133.844 64.432 129.65 64.9679 126.029 63.6628C124.986 67.1946 122.275 70.1644 118.505 71.3802C114.889 72.544 111.121 71.8297 108.252 69.7756C106.417 72.7368 103.266 74.8368 99.5266 75.1883C95.8306 75.534 92.3795 74.0936 90.026 71.5759C87.9057 73.8488 84.8896 75.243 81.6085 75.243C81.2515 75.2435 80.8884 75.2262 80.5254 75.1947V75.1947Z" fill="#F9F6F9"/>
<path d="M85.8027 72.0257C84.5207 70.5307 83.5816 68.7102 83.0604 66.731C81.7929 67.2437 80.4562 67.5059 79.1167 67.5059C76.6221 67.5059 74.1131 66.6043 72.0015 64.7434C69.1094 62.1967 67.6028 58.4143 67.6028 54.5918C67.6028 53.4769 67.7294 52.3622 67.9887 51.2704C65.54 50.533 63.4143 48.9169 61.899 46.742C60.3809 44.5642 59.4735 41.8276 59.4648 38.8517V38.8029C59.4648 32.8629 63.0483 27.8593 67.9283 26.3582C67.6603 25.249 67.5279 24.1113 67.5279 22.979C67.5279 19.1706 69.0258 15.3969 71.898 12.8506C74.0154 10.9751 76.5389 10.062 79.045 10.062C80.3759 10.062 81.7038 10.3213 82.9627 10.8283C83.4813 8.84936 84.4176 7.02856 85.6964 5.53064C86.2207 4.91696 86.7997 4.3582 87.4333 3.86564C85.6906 2.8201 83.6596 2.22376 81.5136 2.22376C81.1535 2.22376 80.7878 2.24111 80.419 2.2755C78.5493 2.45125 76.8268 3.06493 75.3433 4.00381C73.8598 4.94586 72.6125 6.21051 71.6962 7.69398C69.7604 6.30822 67.4184 5.53353 64.9871 5.53353C63.8117 5.53353 62.6191 5.71506 61.4408 6.09518C59.5541 6.70597 57.9351 7.7544 56.656 9.09102C55.3769 10.4276 54.4406 12.0551 53.9223 13.8209C52.6635 13.3686 51.3384 13.1382 50.0047 13.1382C47.4985 13.1382 44.975 13.9504 42.8576 15.627C39.9855 17.8999 38.4875 21.2675 38.4875 24.6695C38.4875 25.6806 38.6199 26.6946 38.8879 27.6855C34.0079 29.0251 30.4244 33.4931 30.4244 38.7965V38.8396C30.4331 41.4955 31.3405 43.9384 32.8586 45.8829C34.3739 47.8245 36.5026 49.2707 38.9483 49.9275C38.689 50.9013 38.5624 51.898 38.5624 52.8918C38.5624 56.3053 40.069 59.6816 42.9611 61.9545C45.0727 63.6166 47.5817 64.4205 50.0735 64.4205C51.4159 64.4205 52.7525 64.1872 54.02 63.729C54.5415 65.4949 55.4807 67.1197 56.7624 68.4564C58.0415 69.7901 59.6631 70.8359 61.5472 71.4409C62.7197 71.8185 63.9065 71.9968 65.0761 71.9968C67.5103 71.9968 69.8581 71.2189 71.7968 69.8277C73.6347 72.792 76.7889 74.8892 80.5253 75.2375C80.8884 75.2693 81.2512 75.2863 81.6084 75.2863C83.2503 75.2863 84.8234 74.9377 86.2522 74.3041C86.6815 74.1139 87.0992 73.898 87.5024 73.656C86.883 73.1721 86.3155 72.6249 85.8027 72.0257V72.0257Z" fill="#E2DFE2"/>
<path d="M71.9047 87.945C71.9047 82.5502 68.9681 78.1613 65.3583 78.1613C61.7485 78.1613 58.8119 82.5502 58.8119 87.945C58.8119 93.3397 61.7488 97.7286 65.3583 97.7286C68.9678 97.7286 71.9047 93.3397 71.9047 87.945Z" fill="black"/>
<path d="M121.188 87.945C121.188 82.5502 118.251 78.1613 114.642 78.1613C111.032 78.1613 108.095 82.5502 108.095 87.945C108.095 93.3397 111.032 97.7286 114.642 97.7286C118.251 97.7286 121.188 93.3397 121.188 87.945Z" fill="black"/>
<path d="M163.209 79.8998L143.002 56.9716C143.42 55.648 143.644 54.2527 143.644 52.8204C143.644 52.2929 143.614 51.767 143.553 51.2456C145.63 50.3298 147.476 48.8964 148.875 47.0906C150.752 44.6717 151.744 41.7733 151.744 38.7084V38.5179C151.724 35.4553 150.714 32.5658 148.824 30.1634C147.415 28.3689 145.563 26.9481 143.485 26.0451C143.541 25.5442 143.569 25.0397 143.569 24.5356C143.569 22.5674 143.135 20.583 142.313 18.7966C141.812 17.7088 140.525 17.2322 139.437 17.7331C138.349 18.2335 137.873 19.521 138.374 20.6087C138.936 21.8309 139.233 23.1886 139.233 24.5356C139.233 25.3389 139.129 26.1422 138.923 26.923C138.619 28.0792 139.308 29.2635 140.463 29.5705C142.405 30.0865 144.163 31.2477 145.415 32.8421C146.705 34.4826 147.394 36.4548 147.408 38.5317V38.7081C147.408 40.8015 146.731 42.781 145.448 44.4332C144.206 46.0358 142.454 47.2088 140.512 47.7361C139.357 48.0494 138.675 49.2395 138.987 50.3946C139.2 51.1814 139.308 51.9974 139.308 52.8201C139.308 55.7047 138.011 58.3834 135.749 60.1681C134.079 61.4842 132.076 62.1799 129.957 62.1799C128.864 62.1799 127.789 61.9926 126.763 61.6232C126.201 61.4212 125.581 61.4596 125.048 61.7296C124.515 61.9996 124.118 62.4774 123.949 63.0503C123.527 64.4832 122.757 65.8106 121.72 66.8922C120.66 68.0025 119.318 68.8411 117.838 69.3178C116.906 69.6187 115.941 69.771 114.969 69.771C113.007 69.771 111.121 69.1631 109.512 68.0132C109.025 67.6646 108.415 67.5334 107.826 67.651C107.238 67.7684 106.726 68.1239 106.409 68.633C105.66 69.8398 104.634 70.8764 103.447 71.6285C102.194 72.4183 100.807 72.8897 99.3231 73.0299C99.021 73.0585 98.7314 73.0724 98.4374 73.0724C95.8636 73.0724 93.3751 71.9884 91.6103 70.0982C91.2004 69.6591 90.6266 69.41 90.026 69.41C89.4253 69.41 88.8515 69.6591 88.4416 70.0982C87.5704 71.031 86.5387 71.7658 85.3767 72.2807C84.1849 72.8079 82.9173 73.0753 81.6085 73.0753C81.3243 73.0753 81.0231 73.0617 80.7248 73.0354C77.785 72.7625 75.2026 71.1614 73.6396 68.6425C73.3234 68.1326 72.8097 67.7768 72.2212 67.6594C71.6335 67.5426 71.0221 67.6739 70.5345 68.0236C68.9264 69.1764 67.0383 69.7858 65.0741 69.7858C64.1066 69.7858 63.1432 69.634 62.2121 69.3351C60.7321 68.8584 59.3882 68.0205 58.3254 66.9122C57.2948 65.8375 56.5248 64.5089 56.0987 63.0705C55.9293 62.4985 55.5313 62.0213 54.9985 61.7518C54.4658 61.4822 53.8455 61.4446 53.2844 61.6472C52.2501 62.0204 51.1702 62.2094 50.0744 62.2094C47.9599 62.2094 45.9639 61.5174 44.3003 60.2074C42.0306 58.4233 40.729 55.7417 40.729 52.8496C40.729 52.0333 40.8348 51.2236 41.0429 50.4431C41.3516 49.2869 40.6654 48.0994 39.5094 47.7898C37.5704 47.2701 35.8149 46.1037 34.5659 44.5052C33.2813 42.8607 32.5985 40.885 32.5916 38.7983V38.7549C32.5916 34.5528 35.4163 30.8433 39.4608 29.7341C40.6131 29.4182 41.2923 28.229 40.9799 27.0759C40.7634 26.2778 40.6535 25.4534 40.6535 24.6255C40.6535 21.7468 41.9471 19.0703 44.2015 17.2839C45.8725 15.9617 47.8792 15.2628 50.0047 15.2628C51.0979 15.2628 52.1677 15.4489 53.1852 15.8163C53.7472 16.019 54.3687 15.9811 54.902 15.7105C55.4353 15.44 55.8331 14.9613 56.0016 14.3875C56.4213 12.9569 57.1896 11.6284 58.2222 10.5467C59.3047 9.41534 60.611 8.59787 62.1072 8.11601C63.0414 7.81394 64.0101 7.66045 64.9865 7.66045C66.9472 7.66045 68.8308 8.26719 70.4336 9.41448C70.9218 9.76424 71.5338 9.89519 72.122 9.77725C72.7108 9.65902 73.2242 9.30203 73.5399 8.79126C74.2839 7.58702 75.3086 6.54929 76.4993 5.79281C77.7501 5.00194 79.1367 4.5299 80.6207 4.38999C80.9185 4.36166 81.2174 4.3475 81.5093 4.3475C84.0849 4.3475 86.5734 5.43062 88.3364 7.31877C88.7463 7.75786 89.3204 8.00703 89.921 8.00703H89.9216C90.5226 8.00703 91.0964 7.75728 91.5063 7.31762C93.2747 5.42281 95.7682 4.33594 98.3481 4.33594C98.6556 4.33594 98.9386 4.34866 99.2202 4.37583C100.706 4.51371 102.093 4.98315 103.343 5.77113C104.537 6.52356 105.562 7.55725 106.307 8.76091C106.623 9.27197 107.138 9.62867 107.727 9.74603C108.316 9.8631 108.928 9.73042 109.416 9.3795C110.996 8.24262 112.936 7.6168 114.877 7.6168C115.846 7.6168 116.808 7.76769 117.736 8.06542C119.212 8.53891 120.556 9.37488 121.619 10.4817C122.653 11.5593 123.425 12.8879 123.853 14.3233C124.023 14.896 124.423 15.3729 124.957 15.6415C125.49 15.91 126.111 15.9461 126.673 15.7415C127.703 15.3663 128.784 15.1758 129.888 15.1758C131.232 15.1758 132.526 15.4553 133.735 16.0065C134.824 16.5034 136.11 16.023 136.607 14.9335C137.104 13.8441 136.623 12.5583 135.534 12.0614C133.757 11.2509 131.857 10.8398 129.888 10.8398C128.994 10.8398 128.11 10.9254 127.242 11.0954C126.61 9.76742 125.766 8.54064 124.748 7.47891C123.186 5.8538 121.219 4.62876 119.06 3.93674C117.705 3.5017 116.297 3.28086 114.877 3.28086C112.715 3.28086 110.621 3.78209 108.719 4.74409C107.834 3.7185 106.798 2.82298 105.656 2.10322C103.823 0.947836 101.792 0.260156 99.6278 0.0592578C99.2199 0.0199453 98.7895 0 98.3481 0C95.2889 0 92.3139 1.04207 89.9208 2.90999C87.1975 0.789141 83.7334 -0.259289 80.2143 0.0734219C78.0452 0.277789 76.016 0.969226 74.179 2.13068C73.0395 2.85478 72.0058 3.75232 71.1233 4.77791C69.2262 3.82227 67.1392 3.32451 64.9874 3.32451C63.5571 3.32451 62.1392 3.54853 60.776 3.98964C58.6199 4.68397 56.6537 5.9148 55.0884 7.55089C54.0715 8.61637 53.2303 9.84489 52.6016 11.1726C51.7503 11.0092 50.8826 10.9266 50.0053 10.9266C46.8932 10.9266 43.9561 11.949 41.5103 13.8843C38.2107 16.4994 36.3182 20.4142 36.3182 24.6252C36.3182 25.1617 36.3497 25.6974 36.4124 26.2292C31.5255 28.3903 28.2562 33.2879 28.2562 38.7546V38.8052C28.2663 41.8701 29.2668 44.7642 31.1497 47.1744C32.5557 48.9741 34.4049 50.4001 36.4797 51.308C36.4222 51.8185 36.3933 52.333 36.3933 52.8493C36.3933 54.2628 36.6107 55.6405 37.0177 56.9482L16.7911 79.9001C16.3838 80.3623 16.1925 80.9762 16.2647 81.5879C16.337 82.1998 16.6665 82.7519 17.1704 83.1063C17.3184 83.2104 20.8594 85.6723 26.3287 87.0321C28.6938 87.6201 31.0601 87.912 33.4024 87.912C37.34 87.912 41.2074 87.0856 44.8753 85.4518C45.8913 89.231 47.3794 92.8625 49.3156 96.2795C52.3629 101.66 54.0712 107.584 54.2556 113.408C54.3964 117.958 55.3824 122.37 57.1862 126.522C57.5411 127.339 58.3384 127.827 59.1758 127.827C59.4643 127.827 59.7571 127.769 60.0386 127.647C61.1368 127.17 61.6403 125.893 61.1631 124.794C59.5793 121.149 58.7133 117.273 58.5896 113.272C58.3829 106.747 56.4806 100.132 53.0884 94.1422C50.9138 90.304 49.3615 86.1678 48.4756 81.8486C47.9133 79.1074 47.6228 76.2876 47.6121 73.467C47.602 71.1013 47.7879 68.7365 48.1637 66.4107C48.7915 66.498 49.4292 66.5445 50.0749 66.5445C50.9612 66.5445 51.8399 66.4598 52.7042 66.2916C53.3361 67.623 54.1793 68.8515 55.1963 69.9121C56.7552 71.5378 58.7217 72.7648 60.8856 73.4618C62.2476 73.8988 63.6568 74.1205 65.0747 74.1205C67.2305 74.1205 69.3222 73.6205 71.2239 72.6608C73.5208 75.3398 76.7424 77.0193 80.3357 77.3525C80.7705 77.3907 81.1986 77.4101 81.6088 77.4101C83.5255 77.4101 85.3833 77.0181 87.1325 76.2443C88.1737 75.7827 89.1423 75.2016 90.0289 74.5076C92.4185 76.3689 95.3864 77.4072 98.438 77.4072C98.8635 77.4072 99.2991 77.3864 99.7315 77.3456C101.867 77.1438 103.952 76.4351 105.764 75.293C106.903 74.5715 107.937 73.6745 108.823 72.6481C110.725 73.6066 112.815 74.1061 114.969 74.1061C116.394 74.1061 117.808 73.8832 119.169 73.4436C121.333 72.7466 123.3 71.5161 124.854 69.8887C125.873 68.8255 126.717 67.5964 127.348 66.2664C128.205 66.4318 129.077 66.515 129.957 66.515C130.589 66.515 131.212 66.4708 131.827 66.3873C132.199 68.6607 132.388 70.975 132.388 73.2935C132.388 76.1657 132.097 79.0427 131.522 81.846C130.62 86.2534 129.023 90.4716 126.774 94.3838C123.474 100.122 121.621 106.653 121.414 113.269C121.161 121.287 117.897 128.83 112.225 134.507C106.829 139.902 99.7735 143.081 92.1679 143.589V134.495L100.844 125.819C101.69 124.973 101.69 123.6 100.844 122.754C99.9969 121.907 98.6241 121.907 97.7778 122.754L90 130.531L82.2222 122.754C81.3755 121.907 80.0027 121.907 79.1564 122.754C78.3097 123.6 78.3097 124.973 79.1564 125.819L87.832 134.495V143.59C80.2265 143.082 73.1707 139.903 67.7748 134.509C66.7663 133.5 65.8179 132.413 64.9565 131.279C64.2321 130.325 62.8723 130.14 61.9187 130.864C60.9651 131.588 60.7792 132.948 61.5033 133.901C62.4832 135.192 63.5617 136.427 64.709 137.575C71.4335 144.297 80.4152 148 90 148C99.5847 148 108.566 144.297 115.292 137.574C121.746 131.114 125.46 122.531 125.747 113.406C125.932 107.499 127.587 101.669 130.533 96.5463C132.544 93.0469 134.083 89.3252 135.123 85.4503C138.793 87.085 142.661 87.9117 146.6 87.9114C148.941 87.9114 151.307 87.6195 153.671 87.0321C159.141 85.6729 162.682 83.2107 162.83 83.1066C163.334 82.7522 163.663 82.1998 163.735 81.5882C163.807 80.9759 163.616 80.3623 163.209 79.8998V79.8998ZM43.93 81.1049C38.7495 83.6501 33.2408 84.2458 27.5309 82.8629C25.1473 82.2854 23.1754 81.4558 21.8017 80.7724L39.1466 61.0905C39.8505 62.0215 40.6755 62.8725 41.6193 63.6146C42.3653 64.2022 43.158 64.704 43.987 65.1186C43.5054 67.8725 43.2638 70.6784 43.2759 73.4852C43.2857 76.0405 43.5077 78.5958 43.93 81.1049V81.1049ZM152.469 82.8624C146.759 84.245 141.249 83.6483 136.067 81.1023C136.501 78.5285 136.724 75.9098 136.724 73.2947C136.724 70.5457 136.479 67.8016 136.004 65.1116C136.855 64.6902 137.669 64.1759 138.434 63.5726C139.358 62.8436 140.167 62.01 140.861 61.0994L158.198 80.7722C156.824 81.4558 154.852 82.2854 152.469 82.8624V82.8624Z" fill="black"/>
</g>
<defs>
<clipPath id="clip0">
<rect x="16" width="148" height="148" fill="white"/>
</clipPath>
</defs>
</svg>
