<svg width="167" height="226" viewBox="0 0 167 226" fill="none" xmlns="http://www.w3.org/2000/svg">
<rect x="29.5" y="165.5" width="19" height="58" rx="2.5" fill="white" stroke="black" stroke-width="5"/>
<rect x="114.5" y="165.5" width="19" height="58" rx="2.5" fill="white" stroke="black" stroke-width="5"/>
<path d="M2.5 125C2.5 115.335 10.335 107.5 20 107.5H21.5V164.5H2.5V125Z" fill="white" stroke="black" stroke-width="5"/>
<path d="M145.5 107.5H147C156.665 107.5 164.5 115.335 164.5 125V164.5H145.5V107.5Z" fill="white" stroke="black" stroke-width="5"/>
<path d="M16.5 121C16.5 111.335 24.335 103.5 34 103.5H133C142.665 103.5 150.5 111.335 150.5 121V184.5H16.5V121Z" fill="white" stroke="black" stroke-width="5"/>
<ellipse cx="19.6008" cy="113.475" rx="8.58161" ry="11.475" fill="black"/>
<ellipse cx="16.3196" cy="127.312" rx="7.31961" ry="9.7875" fill="black"/>
<ellipse cx="17.5816" cy="143.85" rx="8.58161" ry="11.475" fill="black"/>
<ellipse cx="28.4348" cy="161.737" rx="13.3772" ry="17.8875" fill="black"/>
<ellipse cx="29.4445" cy="188.738" rx="11.8628" ry="15.8625" fill="black"/>
<path d="M21.62 102H38.8312C41.5927 102 43.8312 104.239 43.8312 107V205C43.8312 207.761 41.5927 210 38.8312 210H26.62C23.8586 210 21.62 207.761 21.62 205V102Z" fill="black"/>
<ellipse rx="8.58161" ry="11.475" transform="matrix(-1 0 0 1 147.231 113.475)" fill="black"/>
<ellipse rx="7.31961" ry="9.7875" transform="matrix(-1 0 0 1 150.512 127.313)" fill="black"/>
<ellipse rx="8.58161" ry="11.475" transform="matrix(-1 0 0 1 149.25 143.85)" fill="black"/>
<ellipse rx="13.3772" ry="17.8875" transform="matrix(-1 0 0 1 138.396 161.737)" fill="black"/>
<ellipse rx="11.8628" ry="15.8625" transform="matrix(-1 0 0 1 137.387 188.738)" fill="black"/>
<path d="M145.211 102H128C125.239 102 123 104.239 123 107V205C123 207.761 125.239 210 128 210H140.211C142.973 210 145.211 207.761 145.211 205V102Z" fill="black"/>
<g clip-path="url(#clip0)">
<path d="M132.25 55.9911L154.582 81.3335C154.582 81.3335 140.456 91.2692 125.077 81.3335H40.9229C25.5439 91.2692 11.4177 81.3335 11.4177 81.3335L33.7501 55.9911" fill="#F1B986"/>
<path d="M127.556 73.2938C127.556 48.5865 107.445 28.5761 82.6997 28.7392C58.0349 28.9016 38.3448 48.8128 38.4448 73.4782C38.4769 81.3777 40.5654 88.7913 44.2024 95.2129C47.3485 100.768 49.222 106.96 49.4214 113.341C49.679 121.583 52.9523 129.748 59.2435 136.039C72.2995 149.095 93.7009 149.095 106.757 136.039C113.049 129.747 116.322 121.581 116.579 113.339C116.775 107.057 118.52 100.915 121.653 95.4661C125.408 88.9367 127.556 81.3665 127.556 73.2938V73.2938Z" fill="#F1D0A5"/>
<path d="M83 145.832C74.384 145.832 65.7708 142.568 59.2429 136.041C52.9514 129.749 49.6789 121.582 49.4225 113.341C49.2208 106.96 47.3485 100.77 44.2026 95.2126C40.5642 88.7916 38.4757 81.3766 38.4442 73.478C38.3434 48.8134 58.0357 28.9022 82.7003 28.7406H82.8703C72.2232 28.9019 63.7251 48.8134 63.7684 73.478C63.7829 81.3769 64.6845 88.7916 66.2544 95.2126C67.6112 100.77 68.4206 106.96 68.507 113.341C68.6166 121.583 70.031 129.749 72.7444 136.041C75.5651 142.568 79.281 145.832 83 145.832Z" fill="#F1B986"/>
<path d="M73.5254 75.1947C69.789 74.8461 66.6347 72.7489 64.7969 69.7846C61.9305 71.8416 58.1626 72.5587 54.5476 71.3978C50.7797 70.1878 48.0631 67.218 47.0201 63.6862C43.399 64.9968 39.2079 64.467 35.9612 61.9117C32.2279 58.9763 30.7988 54.2001 31.9484 49.8847C27.054 48.5683 23.4419 44.1089 23.4245 38.7971C23.4043 33.4763 26.9936 28.9854 31.888 27.643C30.7155 23.3276 32.1299 18.5344 35.8574 15.5845C39.1013 13.0176 43.2982 12.4733 46.9221 13.7784C47.9593 10.2467 50.6698 7.27107 54.4406 6.05239C58.0559 4.88573 61.8268 5.59711 64.696 7.65119C66.5281 4.68685 69.6794 2.58421 73.4188 2.23271C77.1147 1.8841 80.5687 3.32161 82.9223 5.83935C85.2729 3.31872 88.7237 1.87572 92.4197 2.21826C96.1587 2.56398 99.3133 4.65824 101.151 7.61968C104.015 5.56271 107.783 4.84266 111.398 6.00064C115.169 7.21066 117.882 10.1747 118.931 13.7036C122.546 12.3901 126.741 12.9144 129.99 15.4637C133.723 18.3933 135.158 23.1637 134.02 27.476C138.917 28.7779 142.538 33.2231 142.576 38.532V38.6268V38.7075C142.576 44.0222 138.975 48.4989 134.081 49.8297C135.242 54.1423 133.822 58.9271 130.091 61.8712C126.844 64.432 122.65 64.9679 119.029 63.6628C117.986 67.1946 115.275 70.1644 111.505 71.3802C107.889 72.544 104.122 71.8297 101.252 69.7756C99.4173 72.7368 96.2657 74.8368 92.5267 75.1883C88.8307 75.534 85.3796 74.0936 83.026 71.5759C80.9058 73.8488 77.8897 75.243 74.6085 75.243C74.2515 75.2435 73.8885 75.2262 73.5254 75.1947V75.1947Z" fill="#F9F6F9"/>
<path d="M78.8029 72.0257C77.5209 70.5307 76.5817 68.7102 76.0605 66.731C74.793 67.2437 73.4564 67.5059 72.1169 67.5059C69.6222 67.5059 67.1132 66.6043 65.0016 64.7434C62.1095 62.1967 60.6029 58.4143 60.6029 54.5918C60.6029 53.4769 60.7295 52.3622 60.9888 51.2704C58.5402 50.533 56.4144 48.9169 54.8991 46.742C53.381 44.5642 52.4736 41.8276 52.4649 38.8517V38.8029C52.4649 32.8629 56.0484 27.8593 60.9284 26.3582C60.6604 25.249 60.528 24.1113 60.528 22.979C60.528 19.1706 62.026 15.3969 64.8981 12.8506C67.0155 10.9751 69.539 10.062 72.0452 10.062C73.376 10.062 74.704 10.3213 75.9628 10.8283C76.4814 8.84936 77.4177 7.02856 78.6965 5.53064C79.2208 4.91696 79.7998 4.3582 80.4335 3.86564C78.6907 2.8201 76.6598 2.22376 74.5138 2.22376C74.1536 2.22376 73.7879 2.24111 73.4191 2.2755C71.5494 2.45125 69.8269 3.06493 68.3434 4.00381C66.86 4.94586 65.6127 6.21051 64.6963 7.69398C62.7605 6.30822 60.4185 5.53353 57.9872 5.53353C56.8119 5.53353 55.6192 5.71506 54.441 6.09518C52.5543 6.70597 50.9352 7.7544 49.6561 9.09102C48.377 10.4276 47.4407 12.0551 46.9224 13.8209C45.6636 13.3686 44.3385 13.1382 43.0048 13.1382C40.4986 13.1382 37.9751 13.9504 35.8577 15.627C32.9856 17.8999 31.4877 21.2675 31.4877 24.6695C31.4877 25.6806 31.6201 26.6946 31.888 27.6855C27.0081 29.0251 23.4246 33.4931 23.4246 38.7965V38.8396C23.4332 41.4955 24.3406 43.9384 25.8588 45.8829C27.374 47.8245 29.5027 49.2707 31.9484 49.9275C31.6891 50.9013 31.5625 51.898 31.5625 52.8918C31.5625 56.3053 33.0691 59.6816 35.9612 61.9545C38.0728 63.6166 40.5819 64.4205 43.0736 64.4205C44.416 64.4205 45.7526 64.1872 47.0202 63.729C47.5416 65.4949 48.4808 67.1197 49.7625 68.4564C51.0416 69.7901 52.6632 70.8359 54.5473 71.4409C55.7198 71.8185 56.9067 71.9968 58.0762 71.9968C60.5104 71.9968 62.8582 71.2189 64.7969 69.8277C66.6348 72.792 69.789 74.8892 73.5255 75.2375C73.8885 75.2693 74.2513 75.2863 74.6086 75.2863C76.2504 75.2863 77.8235 74.9377 79.2524 74.3041C79.6816 74.1139 80.0993 73.898 80.5026 73.656C79.8831 73.1721 79.3157 72.6249 78.8029 72.0257V72.0257Z" fill="#E2DFE2"/>
<path d="M64.9047 87.945C64.9047 82.5502 61.9681 78.1613 58.3583 78.1613C54.7485 78.1613 51.8119 82.5502 51.8119 87.945C51.8119 93.3397 54.7488 97.7286 58.3583 97.7286C61.9678 97.7286 64.9047 93.3397 64.9047 87.945Z" fill="black"/>
<path d="M114.188 87.945C114.188 82.5502 111.251 78.1613 107.642 78.1613C104.032 78.1613 101.095 82.5502 101.095 87.945C101.095 93.3397 104.032 97.7286 107.642 97.7286C111.251 97.7286 114.188 93.3397 114.188 87.945Z" fill="black"/>
<path d="M156.209 79.8998L136.002 56.9716C136.42 55.648 136.644 54.2527 136.644 52.8204C136.644 52.2929 136.614 51.767 136.553 51.2456C138.63 50.3298 140.476 48.8964 141.875 47.0906C143.752 44.6717 144.744 41.7733 144.744 38.7084V38.5179C144.724 35.4553 143.714 32.5658 141.824 30.1634C140.415 28.3689 138.563 26.9481 136.485 26.0451C136.541 25.5442 136.569 25.0397 136.569 24.5356C136.569 22.5674 136.135 20.583 135.313 18.7966C134.812 17.7088 133.525 17.2322 132.437 17.7331C131.349 18.2335 130.873 19.521 131.374 20.6087C131.936 21.8309 132.233 23.1886 132.233 24.5356C132.233 25.3389 132.129 26.1422 131.923 26.923C131.619 28.0792 132.308 29.2635 133.463 29.5705C135.405 30.0865 137.163 31.2477 138.415 32.8421C139.705 34.4826 140.394 36.4548 140.408 38.5317V38.7081C140.408 40.8015 139.731 42.781 138.448 44.4332C137.206 46.0358 135.454 47.2088 133.512 47.7361C132.357 48.0494 131.675 49.2395 131.987 50.3946C132.2 51.1814 132.308 51.9974 132.308 52.8201C132.308 55.7047 131.011 58.3834 128.749 60.1681C127.079 61.4842 125.076 62.1799 122.957 62.1799C121.864 62.1799 120.789 61.9926 119.763 61.6232C119.201 61.4212 118.581 61.4596 118.048 61.7296C117.515 61.9996 117.118 62.4774 116.949 63.0503C116.527 64.4832 115.757 65.8106 114.72 66.8922C113.66 68.0025 112.318 68.8411 110.838 69.3178C109.906 69.6187 108.941 69.771 107.969 69.771C106.007 69.771 104.121 69.1631 102.512 68.0132C102.025 67.6646 101.415 67.5334 100.826 67.651C100.238 67.7684 99.7257 68.1239 99.4095 68.633C98.6599 69.8398 97.634 70.8764 96.4471 71.6285C95.1941 72.4183 93.8066 72.8897 92.3231 73.0299C92.021 73.0585 91.7314 73.0724 91.4374 73.0724C88.8636 73.0724 86.3751 71.9884 84.6103 70.0982C84.2004 69.6591 83.6266 69.41 83.026 69.41C82.4253 69.41 81.8515 69.6591 81.4416 70.0982C80.5704 71.031 79.5387 71.7658 78.3767 72.2807C77.1849 72.8079 75.9173 73.0753 74.6085 73.0753C74.3243 73.0753 74.0231 73.0617 73.7248 73.0354C70.785 72.7625 68.2026 71.1614 66.6396 68.6425C66.3234 68.1326 65.8097 67.7768 65.2212 67.6594C64.6335 67.5426 64.0221 67.6739 63.5345 68.0236C61.9264 69.1764 60.0383 69.7858 58.0741 69.7858C57.1066 69.7858 56.1432 69.634 55.2121 69.3351C53.7321 68.8584 52.3882 68.0205 51.3254 66.9122C50.2948 65.8375 49.5248 64.5089 49.0987 63.0705C48.9293 62.4985 48.5313 62.0213 47.9985 61.7518C47.4658 61.4822 46.8455 61.4446 46.2844 61.6472C45.2501 62.0204 44.1702 62.2094 43.0744 62.2094C40.9599 62.2094 38.9639 61.5174 37.3003 60.2074C35.0306 58.4233 33.729 55.7417 33.729 52.8496C33.729 52.0333 33.8348 51.2236 34.0429 50.4431C34.3516 49.2869 33.6654 48.0994 32.5094 47.7898C30.5704 47.2701 28.8149 46.1037 27.5659 44.5052C26.2813 42.8607 25.5985 40.885 25.5916 38.7983V38.7549C25.5916 34.5528 28.4163 30.8433 32.4608 29.7341C33.6131 29.4182 34.2923 28.229 33.9799 27.0759C33.7634 26.2778 33.6535 25.4534 33.6535 24.6255C33.6535 21.7468 34.9471 19.0703 37.2015 17.2839C38.8725 15.9617 40.8792 15.2628 43.0047 15.2628C44.0979 15.2628 45.1677 15.4489 46.1852 15.8163C46.7472 16.019 47.3687 15.9811 47.902 15.7105C48.4353 15.44 48.8331 14.9613 49.0016 14.3875C49.4213 12.9569 50.1896 11.6284 51.2222 10.5467C52.3047 9.41534 53.611 8.59787 55.1072 8.11601C56.0414 7.81394 57.0101 7.66045 57.9865 7.66045C59.9472 7.66045 61.8308 8.26719 63.4336 9.41448C63.9218 9.76424 64.5338 9.89519 65.122 9.77725C65.7108 9.65902 66.2242 9.30203 66.5399 8.79126C67.2839 7.58702 68.3086 6.54929 69.4993 5.79281C70.7501 5.00194 72.1367 4.5299 73.6207 4.38999C73.9185 4.36166 74.2174 4.3475 74.5093 4.3475C77.0849 4.3475 79.5734 5.43062 81.3364 7.31877C81.7463 7.75786 82.3204 8.00703 82.921 8.00703H82.9216C83.5226 8.00703 84.0964 7.75728 84.5063 7.31762C86.2747 5.42281 88.7682 4.33594 91.3481 4.33594C91.6556 4.33594 91.9386 4.34866 92.2202 4.37583C93.706 4.51371 95.0932 4.98315 96.3434 5.77113C97.5369 6.52356 98.5619 7.55725 99.3071 8.76091C99.6234 9.27197 100.138 9.62867 100.727 9.74603C101.316 9.8631 101.928 9.73042 102.416 9.3795C103.996 8.24262 105.936 7.6168 107.877 7.6168C108.846 7.6168 109.808 7.76769 110.736 8.06542C112.212 8.53891 113.556 9.37488 114.619 10.4817C115.653 11.5593 116.425 12.8879 116.853 14.3233C117.023 14.896 117.423 15.3729 117.957 15.6415C118.49 15.91 119.111 15.9461 119.673 15.7415C120.703 15.3663 121.784 15.1758 122.888 15.1758C124.232 15.1758 125.526 15.4553 126.735 16.0065C127.824 16.5034 129.11 16.023 129.607 14.9335C130.104 13.8441 129.623 12.5583 128.534 12.0614C126.757 11.2509 124.857 10.8398 122.888 10.8398C121.994 10.8398 121.11 10.9254 120.242 11.0954C119.61 9.76742 118.766 8.54064 117.748 7.47891C116.186 5.8538 114.219 4.62876 112.06 3.93674C110.705 3.5017 109.297 3.28086 107.877 3.28086C105.715 3.28086 103.621 3.78209 101.719 4.74409C100.834 3.7185 99.7977 2.82298 98.6556 2.10322C96.8229 0.947836 94.7923 0.260156 92.6278 0.0592578C92.2199 0.0199453 91.7895 0 91.3481 0C88.2889 0 85.3139 1.04207 82.9208 2.90999C80.1975 0.789141 76.7334 -0.259289 73.2143 0.0734219C71.0452 0.277789 69.016 0.969226 67.179 2.13068C66.0395 2.85478 65.0058 3.75232 64.1233 4.77791C62.2262 3.82227 60.1392 3.32451 57.9874 3.32451C56.5571 3.32451 55.1392 3.54853 53.776 3.98964C51.6199 4.68397 49.6537 5.9148 48.0884 7.55089C47.0715 8.61637 46.2303 9.84489 45.6016 11.1726C44.7503 11.0092 43.8826 10.9266 43.0053 10.9266C39.8932 10.9266 36.9561 11.949 34.5103 13.8843C31.2107 16.4994 29.3182 20.4142 29.3182 24.6252C29.3182 25.1617 29.3497 25.6974 29.4124 26.2292C24.5255 28.3903 21.2562 33.2879 21.2562 38.7546V38.8052C21.2663 41.8701 22.2668 44.7642 24.1497 47.1744C25.5557 48.9741 27.4049 50.4001 29.4797 51.308C29.4222 51.8185 29.3933 52.333 29.3933 52.8493C29.3933 54.2628 29.6107 55.6405 30.0177 56.9482L9.79112 79.9001C9.38383 80.3623 9.19247 80.9762 9.26474 81.5879C9.337 82.1998 9.66654 82.7519 10.1704 83.1063C10.3184 83.2104 13.8594 85.6723 19.3287 87.0321C21.6938 87.6201 24.0601 87.912 26.4024 87.912C30.34 87.912 34.2074 87.0856 37.8753 85.4518C38.8913 89.231 40.3794 92.8625 42.3156 96.2795C45.3629 101.66 47.0712 107.584 47.2556 113.408C47.3964 117.958 48.3824 122.37 50.1862 126.522C50.5411 127.339 51.3384 127.827 52.1758 127.827C52.4643 127.827 52.7571 127.769 53.0386 127.647C54.1368 127.17 54.6403 125.893 54.1631 124.794C52.5793 121.149 51.7133 117.273 51.5896 113.272C51.3829 106.747 49.4806 100.132 46.0884 94.1422C43.9138 90.304 42.3615 86.1678 41.4756 81.8486C40.9133 79.1074 40.6228 76.2876 40.6121 73.467C40.602 71.1013 40.7879 68.7365 41.1637 66.4107C41.7915 66.498 42.4292 66.5445 43.0749 66.5445C43.9612 66.5445 44.8399 66.4598 45.7042 66.2916C46.3361 67.623 47.1793 68.8515 48.1963 69.9121C49.7552 71.5378 51.7217 72.7648 53.8856 73.4618C55.2476 73.8988 56.6568 74.1205 58.0747 74.1205C60.2305 74.1205 62.3222 73.6205 64.2239 72.6608C66.5208 75.3398 69.7424 77.0193 73.3357 77.3525C73.7705 77.3907 74.1986 77.4101 74.6088 77.4101C76.5255 77.4101 78.3833 77.0181 80.1325 76.2443C81.1737 75.7827 82.1423 75.2016 83.0289 74.5076C85.4185 76.3689 88.3864 77.4072 91.438 77.4072C91.8635 77.4072 92.2991 77.3864 92.7315 77.3456C94.8674 77.1438 96.9518 76.4351 98.764 75.293C99.9026 74.5715 100.937 73.6745 101.823 72.6481C103.725 73.6066 105.815 74.1061 107.969 74.1061C109.394 74.1061 110.808 73.8832 112.169 73.4436C114.333 72.7466 116.3 71.5161 117.854 69.8887C118.873 68.8255 119.717 67.5964 120.348 66.2664C121.205 66.4318 122.077 66.515 122.957 66.515C123.589 66.515 124.212 66.4708 124.827 66.3873C125.199 68.6607 125.388 70.975 125.388 73.2935C125.388 76.1657 125.097 79.0427 124.522 81.846C123.62 86.2534 122.023 90.4716 119.774 94.3838C116.474 100.122 114.621 106.653 114.414 113.269C114.161 121.287 110.897 128.83 105.225 134.507C99.8292 139.902 92.7735 143.081 85.1679 143.589V134.495L93.8436 125.819C94.6902 124.973 94.6902 123.6 93.8436 122.754C92.9969 121.907 91.6241 121.907 90.7778 122.754L83 130.531L75.2222 122.754C74.3755 121.907 73.0027 121.907 72.1564 122.754C71.3097 123.6 71.3097 124.973 72.1564 125.819L80.832 134.495V143.59C73.2265 143.082 66.1707 139.903 60.7748 134.509C59.7663 133.5 58.8179 132.413 57.9565 131.279C57.2321 130.325 55.8723 130.14 54.9187 130.864C53.9651 131.588 53.7792 132.948 54.5033 133.901C55.4832 135.192 56.5617 136.427 57.709 137.575C64.4335 144.297 73.4152 148 83 148C92.5847 148 101.566 144.297 108.292 137.574C114.746 131.114 118.46 122.531 118.747 113.406C118.932 107.499 120.587 101.669 123.533 96.5463C125.544 93.0469 127.083 89.3252 128.123 85.4503C131.793 87.085 135.661 87.9117 139.6 87.9114C141.941 87.9114 144.307 87.6195 146.671 87.0321C152.141 85.6729 155.682 83.2107 155.83 83.1066C156.334 82.7522 156.663 82.1998 156.735 81.5882C156.807 80.9759 156.616 80.3623 156.209 79.8998V79.8998ZM36.93 81.1049C31.7495 83.6501 26.2408 84.2458 20.5309 82.8629C18.1473 82.2854 16.1754 81.4558 14.8017 80.7724L32.1466 61.0905C32.8505 62.0215 33.6755 62.8725 34.6193 63.6146C35.3653 64.2022 36.158 64.704 36.987 65.1186C36.5054 67.8725 36.2638 70.6784 36.2759 73.4852C36.2857 76.0405 36.5077 78.5958 36.93 81.1049V81.1049ZM145.469 82.8624C139.759 84.245 134.249 83.6483 129.067 81.1023C129.501 78.5285 129.724 75.9098 129.724 73.2947C129.724 70.5457 129.479 67.8016 129.004 65.1116C129.855 64.6902 130.669 64.1759 131.434 63.5726C132.358 62.8436 133.167 62.01 133.861 61.0994L151.198 80.7722C149.824 81.4558 147.852 82.2854 145.469 82.8624V82.8624Z" fill="black"/>
</g>
<defs>
<clipPath id="clip0">
<rect x="9" width="148" height="148" fill="white"/>
</clipPath>
</defs>
</svg>
