<svg width="25" height="25" viewBox="0 0 25 25" fill="none" xmlns="http://www.w3.org/2000/svg">
<path d="M1.66669 9.16666H23.3333V21.25C23.3333 23.091 21.841 24.5833 20 24.5833H5.00002C3.159 24.5833 1.66669 23.091 1.66669 21.25V9.16666Z" fill="#F8E19F"/>
<path d="M20 2.91666H19.5833V4.99999C19.5833 5.6903 19.0237 6.24999 18.3333 6.24999C17.643 6.24999 17.0834 5.6903 17.0834 4.99999V2.91666H13.75V4.99999C13.75 5.6903 13.1903 6.24999 12.5 6.24999C11.8097 6.24999 11.25 5.6903 11.25 4.99999V2.91666H7.91669V4.99999C7.91669 5.6903 7.35699 6.24999 6.66669 6.24999C5.97638 6.24999 5.41669 5.6903 5.41669 4.99999V2.91666H5.00002C3.159 2.91666 1.66669 4.40897 1.66669 6.24999V9.16666H23.3333V6.24999C23.3333 4.40897 21.841 2.91666 20 2.91666Z" fill="#FF3314"/>
<path d="M5.83331 6.66666C6.18955 6.66706 6.52911 6.51549 6.76674 6.24999C6.73338 6.25202 6.70001 6.25202 6.66665 6.24999C5.97634 6.24999 5.41665 5.6903 5.41665 4.99999V2.91666H4.99998C4.86062 2.91788 4.72146 2.92764 4.58331 2.94575V5.41666C4.58331 6.10696 5.14301 6.66666 5.83331 6.66666Z" fill="#B21800"/>
<path d="M17.5 6.66666C17.8562 6.66706 18.1958 6.51549 18.4334 6.24999C18.4001 6.25202 18.3667 6.25202 18.3333 6.24999C17.643 6.24999 17.0833 5.6903 17.0833 4.99999V2.91666H16.25V5.41666C16.25 6.10696 16.8097 6.66666 17.5 6.66666Z" fill="#B21800"/>
<path d="M11.6667 6.66666C12.0229 6.66706 12.3625 6.51549 12.6001 6.24999C12.5668 6.25202 12.5334 6.25202 12.5 6.24999C11.8097 6.24999 11.25 5.6903 11.25 4.99999V2.91666H10.4167V5.41666C10.4167 6.10696 10.9764 6.66666 11.6667 6.66666Z" fill="#B21800"/>
<path d="M6.66669 0.425018C7.35699 0.425018 7.91669 0.984711 7.91669 1.67502V5.00835C7.91669 5.69866 7.35699 6.25835 6.66669 6.25835C5.97638 6.25835 5.41669 5.69866 5.41669 5.00835V1.67502C5.41669 0.984711 5.97638 0.425018 6.66669 0.425018Z" fill="#F7F9F2"/>
<path d="M18.3333 0.425018C19.0236 0.425018 19.5833 0.984711 19.5833 1.67502V5.00835C19.5833 5.69866 19.0236 6.25835 18.3333 6.25835C17.643 6.25835 17.0833 5.69866 17.0833 5.00835V1.67502C17.0833 0.984711 17.643 0.425018 18.3333 0.425018Z" fill="#F7F9F2"/>
<path d="M12.5 0.425018C13.1903 0.425018 13.75 0.984711 13.75 1.67502V5.00835C13.75 5.69866 13.1903 6.25835 12.5 6.25835C11.8097 6.25835 11.25 5.69866 11.25 5.00835V1.67502C11.25 0.984711 11.8097 0.425018 12.5 0.425018Z" fill="#F7F9F2"/>
<path d="M7.50002 5.41668C6.80971 5.41668 6.25002 4.85698 6.25002 4.16668V0.833344C6.25185 0.71168 6.27159 0.591034 6.30841 0.475067C5.78127 0.632741 5.41933 1.11655 5.41669 1.66668V5.00001C5.42584 5.61321 5.87832 6.12916 6.48501 6.21807C7.0917 6.30718 7.67336 5.943 7.8583 5.35829C7.74233 5.39511 7.62168 5.41485 7.50002 5.41668Z" fill="#B8B9B4"/>
<path d="M19.1666 5.41668C18.4763 5.41668 17.9166 4.85698 17.9166 4.16668V0.833344C17.9185 0.71168 17.9382 0.591034 17.975 0.475067C17.4479 0.632741 17.086 1.11655 17.0833 1.66668V5.00001C17.0925 5.61321 17.5449 6.12916 18.1516 6.21807C18.7583 6.30718 19.34 5.943 19.5249 5.35829C19.409 5.39511 19.2883 5.41485 19.1666 5.41668Z" fill="#B8B9B4"/>
<path d="M13.3333 5.41668C12.643 5.41668 12.0833 4.85698 12.0833 4.16668V0.833344C12.0852 0.71168 12.1049 0.591034 12.1417 0.475067C11.6146 0.632741 11.2526 1.11655 11.25 1.66668V5.00001C11.2592 5.61321 11.7116 6.12916 12.3183 6.21807C12.925 6.30718 13.5067 5.943 13.6916 5.35829C13.5756 5.39511 13.455 5.41485 13.3333 5.41668Z" fill="#B8B9B4"/>
<path d="M3.75002 11.6667V9.16666H1.66669V21.25C1.66669 23.091 3.159 24.5833 5.00002 24.5833H20C21.3574 24.5823 22.5785 23.7583 23.0876 22.5H14.5834C8.60028 22.5 3.75002 17.6497 3.75002 11.6667Z" fill="#D5AD56"/>
<path d="M3.75002 3.17078C2.49168 3.67981 1.6677 4.90092 1.66669 6.25834V9.17501H3.75002V3.17078Z" fill="#B21800"/>
<path d="M20 12.9166C20 12.4564 19.6269 12.0833 19.1667 12.0833H15.8334C14.9129 12.0833 14.1667 12.8296 14.1667 13.75V16.25C14.1667 17.1704 14.9129 17.9166 15.8334 17.9166H18.3334V20.4166H15C14.5398 20.4166 14.1667 20.7898 14.1667 21.25C14.1667 21.7102 14.5398 22.0833 15 22.0833H18.3334C19.2538 22.0833 20 21.3371 20 20.4166V17.9166C20 16.9962 19.2538 16.25 18.3334 16.25H15.8334V13.75H19.1667C19.6269 13.75 20 13.3769 20 12.9166Z" fill="#39B99B"/>
<path d="M5 12.9166C5 12.4564 5.37313 12.0833 5.83333 12.0833H9.16667C10.0871 12.0833 10.8333 12.8296 10.8333 13.75V16.25C10.8333 17.1704 10.0871 17.9166 9.16667 17.9166H6.66667V20.4166H10C10.4602 20.4166 10.8333 20.7898 10.8333 21.25C10.8333 21.7102 10.4602 22.0833 10 22.0833H6.66667C5.74626 22.0833 5 21.3371 5 20.4166V17.9166C5 16.9962 5.74626 16.25 6.66667 16.25H9.16667V13.75H5.83333C5.37313 13.75 5 13.3769 5 12.9166Z" fill="#39B99B"/>
<path d="M8.20007 20.4167H6.66667V19.0666C6.11348 18.4715 5.62744 17.8176 5.21667 17.1167C5.07833 17.3608 5.00366 17.6361 5 17.9167V20.4167C5 21.3371 5.74626 22.0833 6.66667 22.0833H10C10.2557 22.0825 10.4968 21.9641 10.6541 21.7625C9.78149 21.4215 8.95671 20.969 8.20007 20.4167Z" fill="#018667"/>
<path d="M15 20C14.3097 20 13.75 20.5597 13.75 21.25C13.75 21.9403 14.3097 22.5 15 22.5H18.3333C19.4838 22.5 20.4167 21.5672 20.4167 20.4167V17.9167C20.4167 16.7661 19.4838 15.8333 18.3333 15.8333H16.25V14.1667H19.1667C19.857 14.1667 20.4167 13.607 20.4167 12.9167C20.4167 12.2263 19.857 11.6667 19.1667 11.6667H15.8333C14.6828 11.6667 13.75 12.5995 13.75 13.75V16.25C13.75 17.4005 14.6828 18.3333 15.8333 18.3333H17.9167V20H15ZM18.3333 17.5H15.8333C15.143 17.5 14.5833 16.9403 14.5833 16.25V13.75C14.5833 13.0597 15.143 12.5 15.8333 12.5H19.1667C19.3968 12.5 19.5833 12.6866 19.5833 12.9167C19.5833 13.1468 19.3968 13.3333 19.1667 13.3333H15.8333C15.6032 13.3333 15.4167 13.5199 15.4167 13.75V16.25C15.4167 16.4801 15.6032 16.6667 15.8333 16.6667H18.3333C19.0236 16.6667 19.5833 17.2263 19.5833 17.9167V20.4167C19.5833 21.107 19.0236 21.6667 18.3333 21.6667H15C14.7699 21.6667 14.5833 21.4801 14.5833 21.25C14.5833 21.0199 14.7699 20.8333 15 20.8333H18.3333C18.5634 20.8333 18.75 20.6468 18.75 20.4167V17.9167C18.75 17.6866 18.5634 17.5 18.3333 17.5Z" fill="#232323"/>
<path d="M6.66665 15.8333C5.51613 15.8333 4.58331 16.7661 4.58331 17.9167V20.4167C4.58331 21.5672 5.51613 22.5 6.66665 22.5H9.99998C10.6903 22.5 11.25 21.9403 11.25 21.25C11.25 20.5597 10.6903 20 9.99998 20H7.08331V18.3333H9.16665C10.3172 18.3333 11.25 17.4005 11.25 16.25V13.75C11.25 12.5995 10.3172 11.6667 9.16665 11.6667H5.83331C5.14301 11.6667 4.58331 12.2263 4.58331 12.9167C4.58331 13.607 5.14301 14.1667 5.83331 14.1667H8.74998V15.8333H6.66665ZM9.16665 13.3333H5.83331C5.60321 13.3333 5.41665 13.1468 5.41665 12.9167C5.41665 12.6866 5.60321 12.5 5.83331 12.5H9.16665C9.85695 12.5 10.4166 13.0597 10.4166 13.75V16.25C10.4166 16.9403 9.85695 17.5 9.16665 17.5H6.66665C6.43654 17.5 6.24998 17.6866 6.24998 17.9167V20.4167C6.24998 20.6468 6.43654 20.8333 6.66665 20.8333H9.99998C10.2301 20.8333 10.4166 21.0199 10.4166 21.25C10.4166 21.4801 10.2301 21.6667 9.99998 21.6667H6.66665C5.97634 21.6667 5.41665 21.107 5.41665 20.4167V17.9167C5.41665 17.2263 5.97634 16.6667 6.66665 16.6667H9.16665C9.39675 16.6667 9.58331 16.4801 9.58331 16.25V13.75C9.58331 13.5199 9.39675 13.3333 9.16665 13.3333Z" fill="#232323"/>
<path d="M23.3333 8.75H2.08333V6.25C2.08333 4.63908 3.38908 3.33333 5 3.33333V5C5 5.92041 5.74626 6.66667 6.66667 6.66667C7.58708 6.66667 8.33333 5.92041 8.33333 5V3.33333H10.8333V5C10.8333 5.92041 11.5796 6.66667 12.5 6.66667C13.4204 6.66667 14.1667 5.92041 14.1667 5V3.33333H16.6667V5C16.6667 5.92041 17.4129 6.66667 18.3333 6.66667C18.5634 6.66667 18.75 6.4801 18.75 6.25C18.75 6.0199 18.5634 5.83333 18.3333 5.83333C17.8731 5.83333 17.5 5.46021 17.5 5V1.66667C17.5 1.20646 17.8731 0.833333 18.3333 0.833333C18.7935 0.833333 19.1667 1.20646 19.1667 1.66667V5C19.1667 5.2301 19.3532 5.41667 19.5833 5.41667C19.8134 5.41667 20 5.2301 20 5V3.33333C21.6109 3.33333 22.9167 4.63908 22.9167 6.25C22.9167 6.4801 23.1032 6.66667 23.3333 6.66667C23.5634 6.66667 23.75 6.4801 23.75 6.25C23.75 4.17887 22.0711 2.5 20 2.5V1.66667C20 0.746256 19.2537 0 18.3333 0C17.4129 0 16.6667 0.746256 16.6667 1.66667V2.5H14.1667V1.66667C14.1667 0.746256 13.4204 0 12.5 0C11.5796 0 10.8333 0.746256 10.8333 1.66667V2.5H8.33333V1.66667C8.33333 1.43656 8.14677 1.25 7.91667 1.25C7.68656 1.25 7.5 1.43656 7.5 1.66667V5C7.5 5.46021 7.12687 5.83333 6.66667 5.83333C6.20646 5.83333 5.83333 5.46021 5.83333 5V1.66667C5.83333 1.20646 6.20646 0.833333 6.66667 0.833333C6.89677 0.833333 7.08333 0.646769 7.08333 0.416667C7.08333 0.186564 6.89677 0 6.66667 0C5.74626 0 5 0.746256 5 1.66667V2.5C2.92887 2.5 1.25 4.17887 1.25 6.25V13.3333C1.25 13.5634 1.43656 13.75 1.66667 13.75C1.89677 13.75 2.08333 13.5634 2.08333 13.3333V9.58333H22.9167V21.25C22.9167 22.8609 21.6109 24.1667 20 24.1667H5C3.38908 24.1667 2.08333 22.8609 2.08333 21.25V17.9167C2.08333 17.6866 1.89677 17.5 1.66667 17.5C1.43656 17.5 1.25 17.6866 1.25 17.9167V21.25C1.25 23.3211 2.92887 25 5 25H20C22.0711 25 23.75 23.3211 23.75 21.25V9.16667C23.75 8.93656 23.5634 8.75 23.3333 8.75ZM11.6667 1.66667C11.6667 1.20646 12.0398 0.833333 12.5 0.833333C12.9602 0.833333 13.3333 1.20646 13.3333 1.66667V5C13.3333 5.46021 12.9602 5.83333 12.5 5.83333C12.0398 5.83333 11.6667 5.46021 11.6667 5V1.66667Z" fill="#232323"/>
</svg>
