<svg width="25" height="25" viewBox="0 0 25 25" fill="none" xmlns="http://www.w3.org/2000/svg">
<g clip-path="url(#clip0)">
<path d="M21.0594 6.30839C20.343 3.09021 17.6093 0.717366 14.3223 0.460611C11.0356 0.20406 7.96652 2.12382 6.75945 5.19165C4.42811 4.53267 1.95984 5.63965 0.901495 7.81881C-0.156855 9.99797 0.499273 12.6223 2.4585 14.047C4.41793 15.4718 7.1167 15.2869 8.86353 13.6084C11.5125 15.8879 15.3878 16.0262 18.1928 13.9417C19.624 14.8533 21.4651 14.8059 22.8475 13.8218C24.2299 12.8377 24.8775 11.1135 24.4847 9.46269C24.0918 7.81189 22.7368 6.56413 21.0594 6.30839Z" fill="#4891D3"/>
<path d="M20.4053 6.25C18.9879 6.25 17.6679 6.97062 16.9011 8.16264C18.5498 7.10205 20.7149 7.33439 22.1013 8.7207C23.4874 10.107 23.7199 12.2719 22.6593 13.9209C24.2141 12.9207 24.9239 11.0156 24.4027 9.24194C23.8814 7.46826 22.2538 6.2502 20.4053 6.25Z" fill="#57B7EB"/>
<path d="M18.9177 6.52915C19.3919 6.34482 19.8963 6.25001 20.4053 6.25001C20.6246 6.25042 20.8435 6.26975 21.0594 6.3084C20.422 3.42815 18.1553 1.18918 15.2676 0.586964C12.3798 -0.0150458 9.40737 1.1314 7.67194 3.51665C9.50136 2.19036 11.8315 1.75945 14.0143 2.34396C16.1971 2.92848 18.0001 4.46595 18.9219 6.52915H18.9177Z" fill="#57B7EB"/>
<path d="M4.57194 6.66668C6.13729 6.6679 7.6119 7.40215 8.55631 8.65093C9.50053 9.89951 9.8055 11.5184 9.38009 13.0251C10.6085 11.4254 10.7554 9.24419 9.75281 7.49411C8.75 5.74403 6.79382 4.76787 4.79268 5.01873C2.79134 5.26958 1.13668 6.69842 0.596924 8.64177C1.54093 7.3991 3.01127 6.66871 4.57194 6.66668Z" fill="#57B7EB"/>
<path d="M15.4053 3.33334L12.9053 5.83334H14.1553V10H16.6553V5.83334H17.9053L15.4053 3.33334Z" fill="#A1D51C"/>
<path d="M15.4053 7.50001C15.4061 8.39234 15.8824 9.21652 16.6553 9.66249V5.83334H17.9053L15.4053 3.33334V7.50001Z" fill="#C4F236"/>
<path d="M19.1553 15C19.1553 18.6819 16.1705 21.6667 12.4886 21.6667C8.80658 21.6667 5.82196 18.6819 5.82196 15C5.82196 11.3182 8.80658 8.33334 12.4886 8.33334C16.1705 8.33334 19.1553 11.3182 19.1553 15Z" fill="#F9E109"/>
<path d="M17.4886 15C17.4886 17.7614 15.2498 20 12.4886 20C9.72715 20 7.48859 17.7614 7.48859 15C7.48859 12.2386 9.72715 10 12.4886 10C15.2498 10 17.4886 12.2386 17.4886 15Z" fill="#FCBC04"/>
<path d="M13.3219 15C13.3219 15.4602 12.9488 15.8333 12.4886 15.8333C12.0282 15.8333 11.6553 15.4602 11.6553 15C11.6553 14.5398 12.0282 14.1667 12.4886 14.1667C12.9488 14.1667 13.3219 14.5398 13.3219 15Z" fill="#C4F236"/>
<path d="M12.4886 10C10.957 10.0014 9.51048 10.7048 8.56342 11.9084C10.554 10.3595 13.3862 10.5355 15.1697 12.3189C16.9529 14.1022 17.1291 16.9346 15.5802 18.925C17.251 17.6064 17.904 15.3746 17.2072 13.3634C16.5106 11.3521 14.6169 10.0024 12.4886 10Z" fill="#E59730"/>
<path d="M18.6094 18.5583C19.2434 17.48 19.5758 16.251 19.572 15C19.5695 13.7689 19.2464 12.5598 18.6345 11.4917C18.6355 11.4807 18.6355 11.4695 18.6345 11.4583L18.6052 11.4249C17.9924 10.3794 17.1216 9.50865 16.0761 8.89585L16.0427 8.86676H16.0093C13.8375 7.61676 11.1646 7.61676 8.99274 8.86676H8.95937L8.92601 8.89585C7.88047 9.50865 7.0097 10.3794 6.39691 11.4249L6.36761 11.4583C6.3666 11.4695 6.3666 11.4807 6.36761 11.4917C5.11761 13.6635 5.11761 16.3364 6.36761 18.5083C6.3666 18.5195 6.3666 18.5307 6.36761 18.5416L6.40932 18.6C7.01805 19.6313 7.87803 20.4913 8.90932 21.1L8.94269 21.1291L8.99274 21.1501C11.1646 22.3942 13.8332 22.3942 16.0053 21.1501C16.2055 21.0382 16.3989 20.9143 16.5843 20.7792C16.77 20.6453 16.8128 20.3865 16.6801 20.2C16.6158 20.1096 16.518 20.0488 16.4085 20.0307C16.2991 20.0128 16.1867 20.0392 16.0968 20.1041L15.9302 20.2126L15.5135 19.5084C15.3984 19.3082 15.1428 19.2391 14.9426 19.3542C14.7425 19.4692 14.6735 19.7249 14.7884 19.9251L15.2051 20.6333C14.4861 20.9867 13.7047 21.1963 12.9053 21.25V20.4166C12.9053 20.1865 12.7187 20 12.4886 20C12.2583 20 12.072 20.1865 12.072 20.4166V21.25C11.2592 21.1969 10.4651 20.9845 9.73431 20.625L10.151 19.9208C10.2661 19.7206 10.1972 19.4651 9.99677 19.35C9.79657 19.235 9.54104 19.304 9.42609 19.5042L9.00942 20.2126C8.33356 19.7575 7.75189 19.1758 7.29677 18.4999L8.00519 18.0833C8.20538 17.9683 8.27435 17.7128 8.1594 17.5126C8.04425 17.3124 7.78872 17.2432 7.58852 17.3584L6.88438 17.775C6.52224 17.0379 6.30983 16.2363 6.25938 15.4166H7.07196C7.30206 15.4166 7.48863 15.2301 7.48863 15C7.48863 14.7699 7.30206 14.5833 7.07196 14.5833H6.25938C6.31248 13.7707 6.52488 12.9765 6.88438 12.2459L7.58852 12.6625C7.78872 12.7775 8.04425 12.7085 8.1594 12.5083C8.27435 12.3081 8.20538 12.0526 8.00519 11.9374L7.29677 11.5208C7.75189 10.8449 8.33356 10.2634 9.00942 9.80833L9.42609 10.5167C9.54104 10.7169 9.79657 10.7859 9.99677 10.6708C10.1972 10.5558 10.2661 10.3003 10.151 10.1001L9.73431 9.39594C10.4651 9.03623 11.2592 8.82404 12.072 8.77094V9.58331C12.072 9.81342 12.2583 9.99998 12.4886 9.99998C12.7187 9.99998 12.9053 9.81342 12.9053 9.58331V8.77094C13.7179 8.82404 14.5119 9.03623 15.2427 9.39594L14.8261 10.1001C14.7109 10.3003 14.7801 10.5558 14.9803 10.6708C15.1805 10.7859 15.436 10.7169 15.551 10.5167L15.9676 9.80833C16.6435 10.2634 17.2252 10.8449 17.6803 11.5208L16.9719 11.9374C16.7717 12.0526 16.7027 12.3081 16.8176 12.5083C16.9328 12.7085 17.1883 12.7775 17.3885 12.6625L18.0927 12.2459C18.4595 12.975 18.6788 13.7693 18.7386 14.5833H17.9053C17.675 14.5833 17.4886 14.7699 17.4886 15C17.4886 15.2301 17.675 15.4166 17.9053 15.4166H18.7386C18.6867 16.2294 18.4743 17.0239 18.1136 17.7541L17.4052 17.3374C17.205 17.2225 16.9495 17.2914 16.8343 17.4916C16.7194 17.6918 16.7884 17.9474 16.9885 18.0625L17.697 18.4792C17.6052 18.6124 17.5134 18.7459 17.4136 18.8708C17.3442 18.9575 17.312 19.0682 17.3246 19.1784C17.3371 19.2887 17.3932 19.3894 17.4803 19.4584C17.661 19.5992 17.9216 19.5676 18.0636 19.3876C18.2664 19.1256 18.4489 18.8485 18.6094 18.5583Z" fill="#39519D"/>
<path d="M15.1386 12.35C14.976 12.1885 14.7136 12.1885 14.551 12.35L13.0259 13.8751C12.6872 13.7081 12.2899 13.7081 11.9511 13.8751L11.0136 12.9376C10.9117 12.8186 10.7518 12.7669 10.5996 12.8035C10.4474 12.8399 10.3286 12.959 10.292 13.1111C10.2554 13.2633 10.307 13.4232 10.4261 13.525L11.3636 14.4625C11.109 14.988 11.2523 15.6197 11.7084 15.9841C12.1647 16.3484 12.8123 16.3484 13.2687 15.9841C13.7248 15.6197 13.868 14.988 13.6135 14.4625L15.1386 12.9376C15.3001 12.775 15.3001 12.5126 15.1386 12.35ZM12.4886 15.4166C12.2583 15.4166 12.072 15.2301 12.072 15C12.072 14.7699 12.2583 14.5833 12.4886 14.5833C12.7187 14.5833 12.9053 14.7699 12.9053 15C12.9053 15.2301 12.7187 15.4166 12.4886 15.4166Z" fill="#39519D"/>
<path d="M12.4886 22.9167C12.2583 22.9167 12.072 23.1032 12.072 23.3333V24.5833C12.072 24.8134 12.2583 25 12.4886 25C12.7187 25 12.9053 24.8134 12.9053 24.5833V23.3333C12.9053 23.1032 12.7187 22.9167 12.4886 22.9167Z" fill="#39519D"/>
<path d="M15.8219 22.0833C15.5916 22.0833 15.4053 22.2699 15.4053 22.5V23.75C15.4053 23.9801 15.5916 24.1666 15.8219 24.1666C16.052 24.1666 16.2386 23.9801 16.2386 23.75V22.5C16.2386 22.2699 16.052 22.0833 15.8219 22.0833Z" fill="#39519D"/>
<path d="M4.98863 22.9167C4.75832 22.9167 4.57196 23.1032 4.57196 23.3333V24.1667C4.57196 24.3968 4.75832 24.5833 4.98863 24.5833C5.21873 24.5833 5.40529 24.3968 5.40529 24.1667V23.3333C5.40529 23.1032 5.21873 22.9167 4.98863 22.9167Z" fill="#39519D"/>
<path d="M8.73863 22.5C8.50832 22.5 8.32196 22.6866 8.32196 22.9167V24.1667C8.32196 24.3968 8.50832 24.5833 8.73863 24.5833C8.96873 24.5833 9.15529 24.3968 9.15529 24.1667V22.9167C9.15529 22.6866 8.96873 22.5 8.73863 22.5Z" fill="#39519D"/>
<path d="M19.9052 20.1666C19.826 20.074 19.7103 20.0207 19.5884 20.0207C19.4668 20.0207 19.351 20.074 19.2718 20.1666L18.0218 21.8333C17.8837 22.0174 17.9211 22.2786 18.1053 22.4168C18.2892 22.5547 18.5504 22.5175 18.6886 22.3333L19.1553 21.6666V23.3333C19.1553 23.5634 19.3416 23.75 19.5719 23.75C19.802 23.75 19.9886 23.5634 19.9886 23.3333V21.6666L20.4885 22.3333C20.5672 22.4383 20.6907 22.5 20.8219 22.5C20.9121 22.5 20.9998 22.4707 21.0718 22.4168C21.2559 22.2786 21.2933 22.0174 21.1552 21.8333L19.9052 20.1666Z" fill="#39519D"/>
<path d="M5.32185 18.9166C5.24312 18.8118 5.11962 18.75 4.9886 18.75C4.85737 18.75 4.73388 18.8118 4.65514 18.9166L3.40514 20.5833C3.267 20.7674 3.30444 21.0286 3.48856 21.1668C3.67268 21.3047 3.93371 21.2675 4.07185 21.0834L4.57193 20.4167V21.6667C4.57193 21.8968 4.75829 22.0833 4.9886 22.0833C5.2187 22.0833 5.40527 21.8968 5.40527 21.6667V20.4167L5.90515 21.0834C5.98388 21.1883 6.10737 21.25 6.2386 21.25C6.32873 21.25 6.41642 21.2207 6.48844 21.1668C6.67256 21.0286 6.71 20.7674 6.57185 20.5833L5.32185 18.9166Z" fill="#39519D"/>
<path d="M21.405 5.94567C20.4901 2.45669 17.3452 0.0177302 13.7384 -0.000173431C10.6085 -0.0101425 7.76997 1.83515 6.50919 4.69994C6.14623 4.62202 5.77615 4.58275 5.40506 4.58316C2.68167 4.58906 0.38614 6.61563 0.0429192 9.31705C-0.300302 12.0187 1.4156 14.5549 4.05089 15.2415C4.08548 15.2456 4.12027 15.2456 4.15506 15.2415C4.38516 15.2702 4.59492 15.107 4.62381 14.8769C4.6525 14.6468 4.48933 14.4369 4.25923 14.4082C2.56184 14.0922 1.1859 12.8491 0.699861 11.1925C0.213818 9.53575 0.700064 7.74641 1.9578 6.56355C3.21532 5.38068 5.03112 5.00491 6.65506 5.59146C6.86238 5.65148 7.08129 5.54283 7.15921 5.34162C8.2078 2.6219 10.8236 0.829498 13.7384 0.83316C17.0583 0.849436 19.927 3.15656 20.6549 6.3957C20.6921 6.56273 20.8276 6.68989 20.9967 6.71654C22.8867 6.98469 24.2739 8.62999 24.2183 10.5384C24.1628 12.4467 22.6825 14.0088 20.78 14.1665C20.5499 14.1895 20.3819 14.3948 20.4051 14.6249C20.428 14.855 20.6331 15.0228 20.8632 14.9998C23.0959 14.7693 24.8332 12.9558 24.9674 10.7152C25.1019 8.47476 23.5939 6.4665 21.405 5.97069V5.94567Z" fill="#39519D"/>
<path d="M16.2386 5.83332V7.71667C16.2386 7.94677 16.425 8.13333 16.6553 8.13333C16.8854 8.13333 17.072 7.94677 17.072 7.71667V6.24999H17.9053C18.0733 6.24918 18.2247 6.14725 18.2886 5.99161C18.3537 5.83658 18.3193 5.65734 18.2011 5.53751L15.7011 3.03751C15.6228 2.95857 15.5164 2.91422 15.4053 2.91422C15.294 2.91422 15.1876 2.95857 15.1093 3.03751L12.6093 5.53751C12.4911 5.65734 12.4567 5.83658 12.5218 5.99161C12.5859 6.14725 12.737 6.24918 12.9053 6.24999H13.7386V6.88333C13.7386 7.11343 13.925 7.3 14.1553 7.3C14.3854 7.3 14.572 7.11343 14.572 6.88333V5.83332C14.572 5.60322 14.3854 5.41666 14.1553 5.41666H13.9093L15.4053 3.92089L16.9011 5.41666H16.6553C16.425 5.41666 16.2386 5.60322 16.2386 5.83332Z" fill="#39519D"/>
</g>
<defs>
<clipPath id="clip0">
<rect width="25" height="25" fill="white"/>
</clipPath>
</defs>
</svg>
