<svg width="25" height="25" viewBox="0 0 25 25" fill="none" xmlns="http://www.w3.org/2000/svg">
<g clip-path="url(#clip0)">
<path d="M25 12.5C25 19.4036 19.4036 25 12.5 25C5.59635 25 0 19.4036 0 12.5C0 5.59635 5.59635 0 12.5 0C19.4036 0 25 5.59635 25 12.5Z" fill="#303A59"/>
<path d="M17.92 16.8457H10.9055C10.501 16.8457 10.1731 17.1738 10.1731 17.5781C10.1731 17.9827 9.84502 18.3105 9.44066 18.3105H5.48558C5.08103 18.3105 4.75316 18.6386 4.75316 19.043C4.75316 19.4475 4.42509 19.7754 4.02074 19.7754H2.33502C3.14698 20.908 4.14319 21.8992 5.28035 22.7051H16.8946C17.2991 22.7051 17.627 22.3772 17.627 21.9727C17.627 21.5683 17.2991 21.2402 16.8946 21.2402H14.2579C13.8533 21.2402 13.5254 20.9124 13.5254 20.5078C13.5254 20.1035 13.8533 19.7754 14.2579 19.7754H15.4297C15.8343 19.7754 16.1622 19.4475 16.1622 19.043C16.1622 18.6386 16.49 18.3105 16.8946 18.3105H17.92C18.3245 18.3105 18.6524 17.9827 18.6524 17.5781C18.6524 17.1738 18.3243 16.8457 17.92 16.8457Z" fill="#EBF0F3"/>
<path d="M25 8.78906C25 13.6433 21.065 17.5783 16.211 17.5783C11.3567 17.5783 7.42169 13.6433 7.42169 8.78906C7.42169 3.93505 11.3567 0 16.211 0C21.065 0 25 3.93505 25 8.78906Z" fill="#FFE854"/>
<path d="M10.3514 8.78906C10.3514 4.4342 13.5189 0.819588 17.6758 0.122261C17.1993 0.0421524 16.7101 0 16.2109 0C11.3567 0 7.42169 3.93505 7.42169 8.78906C7.42169 13.6433 11.3567 17.5783 16.2109 17.5783C16.7101 17.5783 17.1993 17.536 17.6758 17.4561C13.5191 16.7585 10.3514 13.1439 10.3514 8.78906Z" fill="#FFCF11"/>
<path d="M15.4301 5.9082C15.4301 7.5264 14.1182 8.83827 12.5 8.83827C10.8818 8.83827 9.56995 7.5264 9.56995 5.9082C9.56995 4.29001 10.8818 2.97813 12.5 2.97813C14.1182 2.97813 15.4301 4.29001 15.4301 5.9082Z" fill="#FFCF11"/>
<path d="M21.434 4.2612C21.434 5.17081 20.6964 5.9082 19.7868 5.9082C18.8772 5.9082 18.1398 5.17081 18.1398 4.2612C18.1398 3.35159 18.8772 2.61401 19.7868 2.61401C20.6964 2.61401 21.434 3.35159 21.434 4.2612Z" fill="#FFCF11"/>
<path d="M24.2813 12.2744C23.6756 11.1183 22.465 10.3291 21.0694 10.3291C19.0676 10.3291 17.4448 11.9518 17.4448 13.9536C17.4448 15.2702 18.1469 16.4228 19.1969 17.0576C21.4798 16.2329 23.3233 14.4897 24.2813 12.2744Z" fill="#FFCF11"/>
<path d="M12.6221 12.5C12.6221 12.0955 12.9499 11.7676 13.3545 11.7676H13.5254C13.9297 11.7676 14.2578 11.4397 14.2578 11.0352C14.2578 10.6306 13.9297 10.3027 13.5254 10.3027H3.71094C3.30639 10.3027 2.97852 10.6306 2.97852 11.0352C2.97852 11.4397 2.65045 11.7676 2.24609 11.7676H2.0752C1.67065 11.7676 1.34277 12.0955 1.34277 12.5C1.34277 12.9045 1.67065 13.2324 2.0752 13.2324H4.37012C4.77448 13.2324 5.10254 13.5603 5.10254 13.9648C5.10254 14.3694 5.43041 14.6973 5.83496 14.6973H15.6494C16.0538 14.6973 16.3818 14.3694 16.3818 13.9648C16.3818 13.5603 16.0538 13.2324 15.6494 13.2324H13.3545C12.9499 13.2324 12.6221 12.9045 12.6221 12.5Z" fill="white"/>
</g>
<defs>
<clipPath id="clip0">
<rect width="25" height="25" fill="white"/>
</clipPath>
</defs>
</svg>
