<svg width="25" height="25" viewBox="0 0 25 25" fill="none" xmlns="http://www.w3.org/2000/svg">
<path d="M23.3408 6.83841C23.3408 9.7265 20.9995 12.0678 18.1114 12.0678C15.2233 12.0678 12.882 9.7265 12.882 6.83841C12.882 3.95031 15.2233 1.60904 18.1114 1.60904C20.9995 1.60904 23.3408 3.95031 23.3408 6.83841Z" fill="#F0BC5E"/>
<path d="M16.5024 14.8836H19.7204V16.8949H16.5024V14.8836Z" fill="#F0BC5E"/>
<path d="M8.77085 25L7.61475 18.0638L14.551 19.2199L14.4854 19.6162C14.0336 22.3454 11.8964 24.4826 9.16702 24.9344L8.77085 25Z" fill="#F0BC5E"/>
<path d="M24.9499 6.8384C24.9499 3.06762 21.8823 0 18.1115 0C15.8543 0 13.8556 1.10386 12.6093 2.7944L11.2709 2.39273C11.2593 1.7369 10.7247 1.20678 10.0663 1.20678C9.40085 1.20678 8.85953 1.74829 8.85953 2.41355C8.85953 2.58444 8.89606 2.74668 8.96088 2.89418L7.77453 4.95183C7.61523 4.87425 7.43905 4.82711 7.25049 4.82711C7.06252 4.82711 6.88712 4.87386 6.72861 4.95065L5.12409 2.91991C5.19598 2.76553 5.23919 2.59504 5.23919 2.41355C5.23919 1.74829 4.69768 1.20678 4.03242 1.20678C3.36696 1.20678 2.82564 1.74829 2.82564 2.41355C2.82564 2.73823 2.95586 3.03187 3.16505 3.24911L1.36293 6.85333C1.31422 6.84724 1.26649 6.8384 1.2166 6.8384C0.551148 6.8384 0.00982666 7.37992 0.00982666 8.04518C0.00982666 8.71044 0.551148 9.25196 1.2166 9.25196C1.2938 9.25196 1.36863 9.24312 1.4413 9.22898L2.82348 11.5983C1.12606 12.7672 0.00982666 14.7223 0.00982666 16.9344C0.00982666 20.5048 2.91442 23.4094 6.48486 23.4094C6.81995 23.4094 7.16839 23.379 7.54845 23.3153L7.94718 23.2489L6.93858 17.3885L12.8 18.3973L12.8664 17.998C12.9295 17.6149 12.9605 17.2673 12.9605 16.9348C12.9605 13.3639 10.0557 10.4587 6.48486 10.4587C5.414 10.4587 4.40521 10.7243 3.51467 11.1865L2.13406 8.81945C2.31182 8.60948 2.42338 8.34157 2.42338 8.04518C2.42338 7.72051 2.29296 7.42687 2.08378 7.20963L3.88589 3.6054C3.9346 3.61149 3.98253 3.62033 4.03242 3.62033C4.2198 3.62033 4.39559 3.57358 4.5541 3.49679L6.15862 5.52753C6.08673 5.68191 6.04371 5.8524 6.04371 6.03389C6.04371 6.69915 6.58503 7.24066 7.25049 7.24066C7.91575 7.24066 8.45727 6.69915 8.45727 6.03389C8.45727 5.863 8.42054 5.70077 8.35631 5.55326L9.54246 3.49561C9.70176 3.57319 9.87794 3.62033 10.0663 3.62033C10.4507 3.62033 10.7899 3.43609 11.0111 3.15483L12.1507 3.49718C11.594 4.48633 11.2731 5.62475 11.2731 6.8384C11.2731 10.1969 13.7082 12.9913 16.9047 13.5639V14.4813H16.1002V22.9288C16.1002 24.0377 17.0023 24.9401 18.1115 24.9401C19.2204 24.9401 20.1228 24.0377 20.1228 22.9288V14.4813H19.3183V13.5639C22.5145 12.9913 24.9499 10.1969 24.9499 6.8384ZM7.01558 22.576C6.83134 22.5953 6.65594 22.6045 6.48525 22.6045C4.7511 22.6045 3.19844 21.8202 2.15783 20.59L6.10755 17.2983L7.01558 22.576ZM12.156 16.9344C12.156 17.1041 12.1467 17.2795 12.1275 17.4645L6.84823 16.5559V11.2817C9.80546 11.4705 12.156 13.9298 12.156 16.9344ZM6.04371 11.2858V16.3045L1.68348 19.9372C1.13607 19.0651 0.814345 18.0376 0.814345 16.9344C0.814345 15.0183 1.77207 13.3244 3.23104 12.297L3.68476 13.075L4.37988 12.6696L3.92085 11.8827C4.56726 11.5534 5.28417 11.3446 6.04371 11.2858ZM0.814345 8.04518C0.814345 7.82323 0.994851 7.64292 1.2166 7.64292C1.43816 7.64292 1.61886 7.82323 1.61886 8.04518C1.61886 8.26713 1.43816 8.44744 1.2166 8.44744C0.994851 8.44744 0.814345 8.26713 0.814345 8.04518ZM4.03242 2.81581C3.81066 2.81581 3.63016 2.6355 3.63016 2.41355C3.63016 2.1916 3.81066 2.0113 4.03242 2.0113C4.25397 2.0113 4.43468 2.1916 4.43468 2.41355C4.43468 2.6355 4.25397 2.81581 4.03242 2.81581ZM7.25049 6.43615C7.02874 6.43615 6.84823 6.25584 6.84823 6.03389C6.84823 5.81194 7.02874 5.63163 7.25049 5.63163C7.47205 5.63163 7.65275 5.81194 7.65275 6.03389C7.65275 6.25584 7.47205 6.43615 7.25049 6.43615ZM10.0663 2.81581C9.84455 2.81581 9.66404 2.6355 9.66404 2.41355C9.66404 2.1916 9.84455 2.0113 10.0663 2.0113C10.2879 2.0113 10.4686 2.1916 10.4686 2.41355C10.4686 2.6355 10.2879 2.81581 10.0663 2.81581ZM12.0776 6.8384C12.0776 5.70332 12.3985 4.64366 12.946 3.73582L18.1174 5.28888C18.1254 5.4523 18.1653 5.60629 18.2325 5.74633L16.6174 7.36126C16.4596 7.28604 16.286 7.24066 16.1002 7.24066C15.4347 7.24066 14.8934 7.78218 14.8934 8.44744C14.8934 9.1127 15.4347 9.65422 16.1002 9.65422C16.7654 9.65422 17.307 9.1127 17.307 8.44744C17.307 8.26163 17.2614 8.0878 17.1858 7.93047L18.8009 6.31555C18.9586 6.39077 19.1323 6.43615 19.3183 6.43615C19.9835 6.43615 20.525 5.89463 20.525 5.22937C20.525 4.56411 19.9835 4.02259 19.3183 4.02259C18.9195 4.02259 18.568 4.2192 18.3484 4.51815L13.4287 3.04071C14.5357 1.67778 16.2228 0.804518 18.1115 0.804518C21.4386 0.804518 24.1454 3.51132 24.1454 6.8384C24.1454 10.1655 21.4386 12.8723 18.1115 12.8723C14.7844 12.8723 12.0776 10.1655 12.0776 6.8384ZM18.916 5.22937C18.916 5.00742 19.0965 4.82711 19.3183 4.82711C19.5398 4.82711 19.7205 5.00742 19.7205 5.22937C19.7205 5.45132 19.5398 5.63163 19.3183 5.63163C19.0965 5.63163 18.916 5.45132 18.916 5.22937ZM16.5024 8.44744C16.5024 8.66939 16.3217 8.8497 16.1002 8.8497C15.8784 8.8497 15.6979 8.66939 15.6979 8.44744C15.6979 8.22549 15.8784 8.04518 16.1002 8.04518C16.3217 8.04518 16.5024 8.22549 16.5024 8.44744ZM19.3183 22.9288C19.3183 23.594 18.7767 24.1355 18.1115 24.1355C17.446 24.1355 16.9047 23.594 16.9047 22.9288V15.2858H19.3183V22.9288ZM18.5137 14.4813H17.7092V13.6564C17.8432 13.6644 17.9754 13.6768 18.1115 13.6768C18.2474 13.6768 18.3798 13.6644 18.5137 13.6564V14.4813Z" fill="black"/>
<path d="M18.5136 22.9288C18.5136 23.1509 18.3335 23.331 18.1114 23.331C17.889 23.331 17.7091 23.1509 17.7091 22.9288C17.7091 22.7066 17.889 22.5265 18.1114 22.5265C18.3335 22.5265 18.5136 22.7066 18.5136 22.9288Z" fill="black"/>
</svg>
