<svg width="20" height="20" viewBox="0 0 20 20" fill="none" xmlns="http://www.w3.org/2000/svg">
<path d="M2.2709 8.35913C2.91388 8.35913 3.49467 7.97307 3.74338 7.37996C4.77029 4.93332 7.18496 3.20904 9.99998 3.20904C11.5515 3.20904 12.9739 3.74082 14.1143 4.62283L13.2204 4.7612C12.9151 4.80853 12.6776 5.05076 12.6362 5.3569C12.5948 5.66287 12.7597 5.95973 13.0413 6.08624L17.9566 8.2976C18.1721 8.39435 18.4217 8.37576 18.6203 8.24814C18.8186 8.12031 18.939 7.90095 18.9403 7.66492L18.9658 2.24888C18.9675 1.94077 18.7667 1.66829 18.4722 1.57847C18.1773 1.48866 17.8587 1.60265 17.688 1.85912L17.0105 2.87733C15.2042 1.09919 12.7291 0 9.99998 0C5.86193 0 2.30414 2.52702 0.786751 6.11867C0.576008 6.61651 0.629125 7.18654 0.927506 7.63693C1.22589 8.08747 1.73025 8.35913 2.2709 8.35913Z" fill="white"/>
<path d="M19.0725 12.3631C18.774 11.9125 18.2696 11.6409 17.729 11.6409C17.086 11.6409 16.5052 12.027 16.2565 12.6201C15.2296 15.0667 12.8149 16.791 9.99994 16.791C8.44839 16.791 7.02598 16.2592 5.88558 15.3772L6.77945 15.2389C7.08472 15.1916 7.32223 14.9493 7.36369 14.6432C7.40511 14.3372 7.24021 14.0403 6.95866 13.9138L2.04328 11.7025C1.82778 11.6058 1.57821 11.6243 1.37957 11.7519C1.18135 11.8798 1.06087 12.0991 1.0596 12.3351L1.03407 17.7511C1.03234 18.0593 1.23315 18.3317 1.52763 18.4215C1.82257 18.5114 2.14123 18.3973 2.31182 18.1408L2.98933 17.1226C4.79562 18.9008 7.27079 20 9.9999 20C14.138 20 17.6957 17.473 19.213 13.8814C19.4239 13.3836 19.3708 12.8136 19.0725 12.3631Z" fill="white"/>
</svg>
