<svg width="183" height="176" viewBox="0 0 183 176" fill="none" xmlns="http://www.w3.org/2000/svg">
<g clip-path="url(#clip0)">
<path d="M123.25 55.9911L145.582 81.3335C145.582 81.3335 131.456 91.2692 116.077 81.3335H31.9229C16.5439 91.2692 2.41771 81.3335 2.41771 81.3335L24.7501 55.9911" fill="#F1B986"/>
<path d="M118.556 73.2938C118.556 48.5865 98.4449 28.5761 73.6997 28.7392C49.0348 28.9016 29.3448 48.8128 29.4448 73.4782C29.4769 81.3777 31.5653 88.7913 35.2023 95.2129C38.3485 100.768 40.2219 106.96 40.4213 113.341C40.6789 121.583 43.9522 129.748 50.2434 136.039C63.2995 149.095 84.7008 149.095 97.7569 136.039C104.049 129.747 107.322 121.581 107.579 113.339C107.775 107.057 109.52 100.915 112.653 95.4661C116.408 88.9367 118.556 81.3665 118.556 73.2938Z" fill="#F1D0A5"/>
<path d="M74 145.832C65.3839 145.832 56.7707 142.568 50.2428 136.041C43.9514 129.749 40.6789 121.582 40.4225 113.341C40.2207 106.96 38.3485 100.77 35.2026 95.2126C31.5642 88.7916 29.4757 81.3766 29.4442 73.478C29.3433 48.8134 49.0357 28.9022 73.7002 28.7406H73.8702C63.2232 28.9019 54.725 48.8134 54.7684 73.478C54.7828 81.3769 55.6844 88.7916 57.2543 95.2126C58.6112 100.77 59.4205 106.96 59.507 113.341C59.6165 121.583 61.0309 129.749 63.7443 136.041C66.565 142.568 70.2809 145.832 74 145.832Z" fill="#F1B986"/>
<path d="M64.5254 75.1947C60.789 74.8461 57.6347 72.7489 55.7969 69.7846C52.9305 71.8416 49.1626 72.5587 45.5476 71.3979C41.7797 70.1878 39.0631 67.218 38.0201 63.6862C34.399 64.9968 30.2079 64.467 26.9612 61.9117C23.2279 58.9763 21.7988 54.2001 22.9484 49.8847C18.054 48.5683 14.4419 44.1089 14.4245 38.7971C14.4043 33.4763 17.9936 28.9854 22.888 27.643C21.7155 23.3276 23.1299 18.5344 26.8574 15.5845C30.1013 13.0176 34.2982 12.4733 37.9221 13.7785C38.9593 10.2467 41.6698 7.27107 45.4406 6.05239C49.056 4.88573 52.8268 5.59711 55.696 7.65119C57.5281 4.68686 60.6794 2.58422 64.4188 2.23272C68.1147 1.88411 71.5687 3.32161 73.9223 5.83935C76.2729 3.31872 79.7237 1.87572 83.4197 2.21826C87.1587 2.56398 90.3133 4.65824 92.1511 7.61968C95.0146 5.56272 98.7825 4.84266 102.398 6.00065C106.169 7.21066 108.882 10.1747 109.931 13.7036C113.546 12.3901 117.741 12.9144 120.99 15.4637C124.723 18.3933 126.158 23.1637 125.02 27.476C129.917 28.7779 133.538 33.2231 133.576 38.532V38.6268V38.7075C133.576 44.0222 129.975 48.4989 125.081 49.8297C126.242 54.1423 124.822 58.9271 121.091 61.8712C117.844 64.432 113.65 64.9679 110.029 63.6628C108.986 67.1946 106.275 70.1644 102.505 71.3802C98.8895 72.544 95.1215 71.8297 92.2523 69.7756C90.4173 72.7368 87.2657 74.8368 83.5267 75.1883C79.8307 75.534 76.3796 74.0936 74.026 71.5759C71.9058 73.8488 68.8897 75.243 65.6085 75.243C65.2515 75.2435 64.8885 75.2262 64.5254 75.1947Z" fill="#F9F6F9"/>
<path d="M69.8028 72.0257C68.5208 70.5307 67.5816 68.7102 67.0605 66.731C65.7929 67.2438 64.4563 67.5059 63.1168 67.5059C60.6222 67.5059 58.1131 66.6044 56.0015 64.7434C53.1094 62.1967 51.6029 58.4143 51.6029 54.5918C51.6029 53.4769 51.7295 52.3622 51.9887 51.2705C49.5401 50.5331 47.4143 48.9169 45.8991 46.742C44.3809 44.5642 43.4735 41.8276 43.4649 38.8517V38.8029C43.4649 32.8629 47.0484 27.8593 51.9283 26.3582C51.6604 25.249 51.528 24.1113 51.528 22.979C51.528 19.1706 53.0259 15.3969 55.898 12.8506C58.0154 10.9751 60.5389 10.062 63.0451 10.062C64.3759 10.062 65.7039 10.3213 66.9628 10.8283C67.4813 8.84937 68.4176 7.02857 69.6964 5.53065C70.2208 4.91697 70.7998 4.35821 71.4334 3.86565C69.6906 2.82011 67.6597 2.22377 65.5137 2.22377C65.1535 2.22377 64.7879 2.24111 64.419 2.27551C62.5494 2.45126 60.8268 3.06494 59.3434 4.00382C57.8599 4.94587 56.6126 6.21052 55.6963 7.69399C53.7604 6.30822 51.4184 5.53354 48.9871 5.53354C47.8118 5.53354 46.6191 5.71507 45.4409 6.09518C43.5542 6.70597 41.9352 7.7544 40.6561 9.09103C39.377 10.4277 38.4407 12.0551 37.9224 13.821C36.6635 13.3686 35.3385 13.1382 34.0047 13.1382C31.4986 13.1382 28.975 13.9505 26.8577 15.627C23.9855 17.8999 22.4876 21.2675 22.4876 24.6695C22.4876 25.6806 22.62 26.6946 22.888 27.6856C18.008 29.0251 14.4245 33.4931 14.4245 38.7965V38.8396C14.4332 41.4955 15.3405 43.9384 16.8587 45.8829C18.374 47.8245 20.5026 49.2707 22.9484 49.9275C22.6891 50.9013 22.5625 51.898 22.5625 52.8918C22.5625 56.3053 24.0691 59.6816 26.9611 61.9545C29.0727 63.6166 31.5818 64.4205 34.0735 64.4205C35.4159 64.4205 36.7526 64.1872 38.0201 63.729C38.5416 65.4949 39.4807 67.1198 40.7624 68.4564C42.0415 69.7901 43.6632 70.8359 45.5473 71.4409C46.7197 71.8185 47.9066 71.9968 49.0762 71.9968C51.5103 71.9968 53.8581 71.2189 55.7969 69.8277C57.6347 72.792 60.789 74.8892 64.5254 75.2375C64.8885 75.2693 65.2512 75.2863 65.6085 75.2863C67.2504 75.2863 68.8235 74.9377 70.2523 74.3041C70.6816 74.1139 71.0993 73.898 71.5025 73.656C70.883 73.1721 70.3156 72.6249 69.8028 72.0257Z" fill="#E2DFE2"/>
<path d="M55.9047 87.945C55.9047 82.5502 52.9681 78.1613 49.3583 78.1613C45.7485 78.1613 42.8119 82.5502 42.8119 87.945C42.8119 93.3397 45.7488 97.7286 49.3583 97.7286C52.9678 97.7286 55.9047 93.3397 55.9047 87.945Z" fill="black"/>
<path d="M105.188 87.945C105.188 82.5502 102.252 78.1613 98.642 78.1613C95.0325 78.1613 92.0953 82.5502 92.0953 87.945C92.0953 93.3397 95.0319 97.7286 98.6417 97.7286C102.252 97.7286 105.188 93.3397 105.188 87.945Z" fill="black"/>
<path d="M147.209 79.8998L127.002 56.9716C127.42 55.648 127.644 54.2527 127.644 52.8204C127.644 52.2929 127.614 51.767 127.553 51.2456C129.63 50.3298 131.476 48.8964 132.875 47.0906C134.752 44.6717 135.744 41.7733 135.744 38.7084V38.5179C135.724 35.4553 134.714 32.5658 132.824 30.1634C131.415 28.3689 129.563 26.9481 127.485 26.0451C127.541 25.5442 127.569 25.0397 127.569 24.5356C127.569 22.5674 127.135 20.583 126.313 18.7966C125.812 17.7088 124.525 17.2322 123.437 17.7331C122.349 18.2335 121.873 19.521 122.374 20.6087C122.936 21.8309 123.233 23.1886 123.233 24.5356C123.233 25.3389 123.129 26.1422 122.923 26.923C122.619 28.0792 123.308 29.2635 124.463 29.5705C126.405 30.0865 128.163 31.2477 129.415 32.8421C130.705 34.4826 131.394 36.4548 131.408 38.5317V38.7081C131.408 40.8015 130.731 42.781 129.448 44.4332C128.206 46.0358 126.454 47.2088 124.512 47.7361C123.357 48.0494 122.675 49.2395 122.987 50.3946C123.2 51.1814 123.308 51.9974 123.308 52.8201C123.308 55.7047 122.011 58.3834 119.749 60.1681C118.079 61.4842 116.076 62.1799 113.957 62.1799C112.864 62.1799 111.789 61.9926 110.763 61.6232C110.201 61.4212 109.581 61.4596 109.048 61.7296C108.515 61.9996 108.118 62.4774 107.949 63.0503C107.527 64.4832 106.757 65.8106 105.72 66.8922C104.66 68.0025 103.318 68.8411 101.838 69.3178C100.907 69.6187 99.941 69.771 98.9689 69.771C97.0073 69.771 95.1206 69.1631 93.512 68.0132C93.0246 67.6646 92.415 67.5334 91.8265 67.651C91.2385 67.7684 90.7257 68.1239 90.4095 68.633C89.66 69.8398 88.6341 70.8764 87.4472 71.6285C86.1941 72.4183 84.8066 72.8897 83.3231 73.0299C83.021 73.0585 82.7314 73.0724 82.4374 73.0724C79.8636 73.0724 77.3751 71.9884 75.6104 70.0982C75.2005 69.6591 74.6267 69.41 74.026 69.41C73.4253 69.41 72.8515 69.6591 72.4417 70.0982C71.5704 71.031 70.5387 71.7658 69.3767 72.2807C68.1849 72.8079 66.9174 73.0753 65.6085 73.0753C65.3244 73.0753 65.0231 73.0617 64.7248 73.0354C61.7851 72.7625 59.2026 71.1614 57.6396 68.6425C57.3234 68.1326 56.8097 67.7768 56.2212 67.6594C55.6335 67.5426 55.0222 67.6739 54.5345 68.0236C52.9265 69.1764 51.0383 69.7858 49.0741 69.7858C48.1066 69.7858 47.1432 69.634 46.2121 69.3351C44.7321 68.8584 43.3883 68.0205 42.3254 66.9122C41.2949 65.8374 40.5248 64.5089 40.0987 63.0705C39.9293 62.4985 39.5313 62.0213 38.9986 61.7518C38.4658 61.4822 37.8455 61.4446 37.2844 61.6472C36.2502 62.0204 35.1702 62.2094 34.0744 62.2094C31.9599 62.2094 29.9639 61.5174 28.3004 60.2074C26.0306 58.4233 24.729 55.7417 24.729 52.8496C24.729 52.0333 24.8348 51.2236 25.0429 50.4431C25.3516 49.2869 24.6654 48.0994 23.5094 47.7898C21.5704 47.2701 19.8149 46.1037 18.5659 44.5052C17.2813 42.8607 16.5985 40.885 16.5916 38.7983V38.7549C16.5916 34.5528 19.4163 30.8433 23.4609 29.7341C24.6131 29.4182 25.2924 28.229 24.9799 27.0759C24.7634 26.2778 24.6536 25.4534 24.6536 24.6255C24.6536 21.7467 25.9471 19.0703 28.2015 17.2839C29.8726 15.9617 31.8792 15.2628 34.0047 15.2628C35.098 15.2628 36.1678 15.4489 37.1853 15.8163C37.7472 16.019 38.3687 15.9811 38.902 15.7105C39.4353 15.44 39.8331 14.9613 40.0016 14.3875C40.4213 12.9569 41.1897 11.6284 42.2222 10.5467C43.3047 9.41534 44.611 8.59787 46.1072 8.11601C47.0414 7.81394 48.0101 7.66045 48.9865 7.66045C50.9473 7.66045 52.8308 8.26719 54.4336 9.41448C54.9219 9.76424 55.5338 9.89519 56.122 9.77725C56.7109 9.65902 57.2242 9.30203 57.5399 8.79126C58.284 7.58702 59.3087 6.54929 60.4993 5.79281C61.7501 5.00194 63.1367 4.5299 64.6208 4.38999C64.9185 4.36166 65.2174 4.3475 65.5094 4.3475C68.0849 4.3475 70.5734 5.43062 72.3364 7.31877C72.7463 7.75786 73.3204 8.00703 73.9211 8.00703H73.9217C74.5226 8.00703 75.0964 7.75728 75.5063 7.31762C77.2748 5.42281 79.7682 4.33594 82.3481 4.33594C82.6557 4.33594 82.9387 4.34866 83.2202 4.37583C84.706 4.51371 86.0932 4.98315 87.3434 5.77113C88.5369 6.52356 89.562 7.55725 90.3072 8.76091C90.6234 9.27197 91.1379 9.62867 91.7273 9.74603C92.3164 9.8631 92.9281 9.73042 93.4163 9.3795C94.9963 8.24262 96.9357 7.6168 98.8767 7.6168C99.8462 7.6168 100.808 7.76769 101.736 8.06542C103.212 8.53891 104.556 9.37488 105.619 10.4817C106.653 11.5593 107.425 12.8879 107.853 14.3233C108.023 14.896 108.423 15.3729 108.957 15.6415C109.491 15.91 110.111 15.9461 110.673 15.7415C111.703 15.3663 112.784 15.1758 113.888 15.1758C115.232 15.1758 116.526 15.4553 117.735 16.0065C118.824 16.5034 120.11 16.023 120.607 14.9335C121.104 13.8441 120.623 12.5583 119.534 12.0614C117.757 11.2509 115.857 10.8398 113.888 10.8398C112.995 10.8398 112.11 10.9254 111.243 11.0954C110.61 9.76742 109.766 8.54064 108.748 7.47891C107.186 5.8538 105.219 4.62876 103.06 3.93674C101.705 3.5017 100.297 3.28086 98.877 3.28086C96.7151 3.28086 94.6206 3.78209 92.7194 4.74409C91.834 3.7185 90.7977 2.82298 89.6556 2.10322C87.823 0.947836 85.7923 0.260156 83.6278 0.0592578C83.2199 0.0199453 82.7895 0 82.3481 0C79.289 0 76.3139 1.04207 73.9208 2.90999C71.1975 0.789141 67.7334 -0.259289 64.2144 0.0734219C62.0452 0.277789 60.016 0.969226 58.179 2.13068C57.0395 2.85478 56.0058 3.75232 55.1233 4.77791C53.2262 3.82227 51.1392 3.32451 48.9874 3.32451C47.5571 3.32451 46.1393 3.54853 44.7761 3.98964C42.6199 4.68397 40.6537 5.9148 39.0885 7.55089C38.0715 8.61637 37.2304 9.84489 36.6017 11.1726C35.7504 11.0092 34.8826 10.9266 34.0053 10.9266C30.8933 10.9266 27.9561 11.949 25.5103 13.8843C22.2107 16.4994 20.3182 20.4142 20.3182 24.6252C20.3182 25.1617 20.3497 25.6974 20.4124 26.2292C15.5255 28.3903 12.2562 33.2879 12.2562 38.7546V38.8052C12.2664 41.8701 13.2668 44.7642 15.1498 47.1744C16.5558 48.9741 18.4049 50.4001 20.4798 51.308C20.4223 51.8185 20.3933 52.333 20.3933 52.8493C20.3933 54.2628 20.6107 55.6405 21.0177 56.9482L0.791152 79.9001C0.383863 80.3623 0.192503 80.9762 0.264769 81.5879C0.337034 82.1998 0.666566 82.7519 1.1704 83.1063C1.3184 83.2104 4.85942 85.6723 10.3288 87.0321C12.6939 87.62 15.0601 87.912 17.4024 87.912C21.34 87.912 25.2074 87.0856 28.8753 85.4518C29.8914 89.231 31.3795 92.8625 33.3156 96.2795C36.3629 101.66 38.0713 107.584 38.2557 113.408C38.3964 117.958 39.3824 122.37 41.1862 126.522C41.5412 127.339 42.3384 127.827 43.1758 127.827C43.4643 127.827 43.7571 127.769 44.0387 127.647C45.1368 127.17 45.6404 125.893 45.1631 124.794C43.5793 121.149 42.7133 117.273 42.5896 113.272C42.3829 106.747 40.4806 100.132 37.0884 94.1422C34.9138 90.304 33.3616 86.1678 32.4756 81.8486C31.9134 79.1074 31.6228 76.2876 31.6122 73.467C31.602 71.1013 31.7879 68.7365 32.1637 66.4107C32.7915 66.498 33.4292 66.5445 34.075 66.5445C34.9612 66.5445 35.84 66.4598 36.7043 66.2916C37.3362 67.623 38.1794 68.8515 39.1963 69.9121C40.7552 71.5378 42.7217 72.7648 44.8856 73.4618C46.2477 73.8988 47.6569 74.1205 49.0747 74.1205C51.2305 74.1205 53.3222 73.6205 55.2239 72.6608C57.5208 75.3398 60.7424 77.0193 64.3358 77.3525C64.7705 77.3907 65.1986 77.4101 65.6088 77.4101C67.5256 77.4101 69.3834 77.0181 71.1325 76.2443C72.1737 75.7827 73.1423 75.2016 74.0289 74.5076C76.4186 76.3689 79.3864 77.4072 82.438 77.4072C82.8635 77.4072 83.2991 77.3864 83.7316 77.3456C85.8674 77.1438 87.9519 76.4351 89.764 75.293C90.9026 74.5715 91.9375 73.6745 92.8226 72.6481C94.7246 73.6066 96.8154 74.1061 98.9695 74.1061C100.394 74.1061 101.808 73.8832 103.169 73.4436C105.333 72.7466 107.3 71.5161 108.854 69.8887C109.873 68.8255 110.717 67.5964 111.348 66.2664C112.205 66.4318 113.077 66.515 113.957 66.515C114.589 66.515 115.212 66.4708 115.827 66.3873C116.199 68.6607 116.388 70.975 116.388 73.2935C116.388 76.1657 116.097 79.0427 115.522 81.846C114.62 86.2534 113.023 90.4716 110.774 94.3838C107.474 100.122 105.621 106.653 105.414 113.269C105.161 121.287 101.897 128.83 96.2251 134.507C90.8292 139.902 83.7735 143.081 76.168 143.589V134.495L84.8436 125.819C85.6903 124.973 85.6903 123.6 84.8436 122.754C83.9969 121.907 82.6242 121.907 81.7778 122.754L74 130.531L66.2222 122.754C65.3755 121.907 64.0028 121.907 63.1564 122.754C62.3097 123.6 62.3097 124.973 63.1564 125.819L71.832 134.495V143.59C64.2265 143.082 57.1708 139.903 51.7748 134.509C50.7663 133.5 49.8179 132.413 48.9565 131.279C48.2321 130.325 46.8723 130.14 45.9187 130.864C44.9651 131.588 44.7792 132.948 45.5033 133.901C46.4833 135.192 47.5618 136.427 48.709 137.575C55.4335 144.297 64.4153 148 74 148C83.5847 148 92.5665 144.297 99.2918 137.574C105.746 131.114 109.46 122.531 109.747 113.406C109.932 107.499 111.587 101.669 114.533 96.5463C116.544 93.0469 118.083 89.3252 119.124 85.4503C122.793 87.085 126.661 87.9117 130.6 87.9114C132.941 87.9114 135.307 87.6195 137.671 87.0321C143.141 85.6729 146.682 83.2107 146.83 83.1066C147.334 82.7522 147.663 82.1998 147.735 81.5882C147.807 80.9759 147.616 80.3623 147.209 79.8998ZM27.9301 81.1049C22.7495 83.6501 17.2408 84.2458 11.531 82.8629C9.14737 82.2854 7.17539 81.4558 5.80176 80.7724L23.1467 61.0905C23.8505 62.0215 24.6755 62.8725 25.6193 63.6146C26.3654 64.2022 27.158 64.704 27.987 65.1186C27.5054 67.8725 27.2638 70.6784 27.2759 73.4852C27.2858 76.0405 27.5078 78.5958 27.9301 81.1049ZM136.469 82.8624C130.759 84.2449 125.249 83.6483 120.067 81.1023C120.501 78.5285 120.724 75.9098 120.724 73.2947C120.724 70.5457 120.479 67.8016 120.004 65.1116C120.855 64.6902 121.669 64.1759 122.434 63.5726C123.358 62.8436 124.167 62.01 124.861 61.0994L142.198 80.7722C140.824 81.4558 138.852 82.2854 136.469 82.8624Z" fill="black"/>
</g>
<g clip-path="url(#clip1)">
<path d="M166.185 140.006V141.04C166.185 161.216 159.324 173.338 157.162 175.902H130.941C128.679 172.766 119.625 159.503 119.625 149.165C119.625 142.606 125.433 135.765 127.974 133.948L130.1 146.568C130.24 147.53 131.179 148.173 132.085 147.995C133.025 147.852 131.952 149.844 131.78 148.882L127.363 110.464C127.188 109.108 127.887 107.825 129.138 107.288C129.941 106.97 130.844 107.041 131.611 107.467C132.378 107.896 132.898 108.679 133.038 109.606L137.071 137.042C137.247 137.897 137.906 138.54 138.881 138.469C139.752 138.433 140.448 137.721 140.519 136.863L143.448 104.419C143.552 103.063 144.458 101.887 145.709 101.461C146.788 101.104 147.903 101.282 148.81 101.997C149.681 102.745 150.169 103.814 150.065 104.955L147.972 130.591C147.972 130.662 147.936 130.734 147.936 130.805L147.484 136.545C147.416 137.507 148.111 138.397 149.086 138.469C150.025 138.54 150.896 137.829 150.968 136.828L151.387 131.41C152.014 130.269 153.162 129.557 154.452 129.557C156.366 129.557 157.933 131.163 157.933 133.123V140.253C157.933 141.251 157.653 141.651 158.628 141.651C159.603 141.651 159.223 141.004 159.223 140.006C159.223 138.046 160.789 136.441 162.704 136.441C164.618 136.441 166.185 138.043 166.185 140.006Z" fill="#FFCC80"/>
<path d="M118 147.995C118 159.87 129.031 174.43 129.499 175.045C129.98 175.669 130.704 176 131.439 176C131.952 176 132.472 175.838 132.918 175.5C133.984 174.681 134.191 173.15 133.372 172.081C133.265 171.944 122.875 158.239 122.875 147.995C122.875 143.286 125.384 140.211 127.461 138.456L129.027 148.375C129.219 149.574 130.256 150.432 131.432 150.432C131.559 150.432 131.686 150.423 131.816 150.403C133.145 150.192 134.052 148.944 133.844 147.615L128.062 110.997C127.708 108.66 131.065 108.082 131.465 110.513L136.899 137.296C137.139 138.479 138.202 139.311 139.421 139.246C140.63 139.178 141.605 138.235 141.715 137.029L144.627 104.906C144.845 101.998 149.08 102.352 148.852 105.261L146.698 131.566C146.698 131.602 146.688 131.638 146.688 131.677L146.285 136.61C146.174 137.952 147.172 139.129 148.514 139.239C149.912 139.356 151.033 138.355 151.144 137.01L151.524 132.369C152.775 130.341 155.7 131.293 155.7 133.614V140.006C155.7 141.352 156.792 142.444 158.138 142.444C159.483 142.444 160.575 141.352 160.575 140.006C160.575 136.886 165.125 136.886 165.125 140.006V140.936C165.125 161.021 154.923 171.752 154.826 171.856C153.883 172.815 153.896 174.359 154.858 175.305C155.33 175.769 155.95 176 156.565 176C157.195 176 157.826 175.756 158.303 175.269C158.781 174.785 170 163.12 170 140.936V140.006C170 135.2 165.336 131.517 160.533 133.198C160.299 129.116 156.646 125.622 151.995 126.594L153.711 105.66C154.472 96.375 140.467 95.1823 139.772 104.507L138.365 120.009L136.259 109.629C134.864 101.201 121.913 102.947 123.242 111.741L126.606 133.045C123.778 134.819 118 139.477 118 147.995Z" fill="black"/>
</g>
<defs>
<clipPath id="clip0">
<rect width="148" height="148" fill="white"/>
</clipPath>
<clipPath id="clip1">
<rect x="105" y="98" width="78" height="78" fill="white"/>
</clipPath>
</defs>
</svg>
