<svg width="25" height="25" viewBox="0 0 25 25" fill="none" xmlns="http://www.w3.org/2000/svg">
<g clip-path="url(#clip0)">
<path d="M20.6499 16.2896L24.3973 15.0977L21.4914 12.4482L24.3656 9.76436L20.6043 8.61714L22.0497 4.95998L18.1598 5.53669L17.8972 1.61302L14.6304 3.80222L12.7105 0.3703L10.4457 4.17312L6.64813 1.8993L6.58544 5.83117L2.67129 5.45319L4.30093 9.03199L0.602844 10.3691L3.60981 12.9033L0.842443 15.6972L4.6455 16.6969L3.34395 20.4076L7.20829 19.6797L7.62367 23.5901L10.8025 21.2752L12.8548 24.6297L14.7337 21.1752L18.0263 23.3254L18.2422 19.3989L22.1387 19.9294L20.6499 16.2896Z" fill="#F08740"/>
<path d="M12.4755 19.6963C16.4607 19.6963 19.6913 16.4727 19.6913 12.4963C19.6913 8.51986 16.4607 5.29633 12.4755 5.29633C8.49036 5.29633 5.25977 8.51986 5.25977 12.4963C5.25977 16.4727 8.49036 19.6963 12.4755 19.6963Z" fill="#FFDB2D"/>
<path d="M12.4755 5.29607C12.2844 5.29607 12.0951 5.30363 11.9078 5.31819C15.6276 5.6071 18.5559 8.71036 18.5559 12.4962C18.5559 16.2821 15.6276 19.3853 11.9078 19.6742C12.0951 19.6888 12.2844 19.6964 12.4755 19.6964C16.4607 19.6964 19.6914 16.4728 19.6914 12.4962C19.6914 8.51969 16.4608 5.29607 12.4755 5.29607Z" fill="#FFB700"/>
<path d="M10.5236 19.0445C9.13865 18.6342 7.89276 17.7719 7.01532 16.6163C6.10903 15.4227 5.62993 13.9979 5.62993 12.4962C5.62993 10.4721 6.52221 8.56412 8.07806 7.26163C8.23485 7.13038 8.2556 6.89684 8.1243 6.74005C7.99305 6.58327 7.75951 6.56251 7.60272 6.69386C5.87836 8.13741 4.8894 10.2523 4.8894 12.4962C4.8894 14.1611 5.4206 15.7407 6.42558 17.0642C7.3976 18.3444 8.7783 19.2999 10.3133 19.7546C10.3484 19.765 10.3838 19.7699 10.4186 19.7699C10.5784 19.7699 10.7259 19.6657 10.7735 19.5047C10.8315 19.3087 10.7197 19.1026 10.5236 19.0445Z" fill="black"/>
<path d="M12.4755 4.92583C11.1326 4.92583 9.81294 5.28076 8.65918 5.95219C8.48243 6.05502 8.42256 6.28173 8.5254 6.45849C8.62828 6.63529 8.85503 6.69511 9.03169 6.59228C10.0725 5.98656 11.2633 5.6664 12.4755 5.6664C16.2502 5.6664 19.3212 8.7303 19.3212 12.4963C19.3212 16.2623 16.2502 19.3262 12.4755 19.3262C12.198 19.3262 11.9186 19.3094 11.645 19.2765C11.4426 19.2521 11.2576 19.3967 11.2331 19.5997C11.2086 19.8028 11.3534 19.9872 11.5564 20.0117C11.8593 20.0482 12.1685 20.0667 12.4756 20.0667C16.6586 20.0667 20.0617 16.6707 20.0617 12.4963C20.0617 8.32191 16.6585 4.92583 12.4755 4.92583Z" fill="black"/>
<path d="M24.6467 14.8241L22.0373 12.4449L24.6182 10.0349C24.7149 9.94465 24.756 9.80964 24.7262 9.68078C24.6964 9.55193 24.6 9.44875 24.4735 9.41013L21.096 8.37996L22.3939 5.09598C22.4426 4.97294 22.4218 4.83334 22.3396 4.72973C22.2574 4.62611 22.1261 4.57421 21.9953 4.59359L18.5023 5.11146L18.2666 1.58814C18.2577 1.4561 18.1791 1.33887 18.0604 1.28057C17.9417 1.22222 17.8008 1.23164 17.691 1.30528L14.7575 3.27109L13.0336 0.189507C12.969 0.074078 12.8477 0.00186147 12.7155 6.01062e-06C12.5827 -0.00184945 12.4601 0.0670956 12.3924 0.180816L10.3175 3.66479L6.83823 1.58164C6.7248 1.51372 6.58364 1.51143 6.46802 1.57578C6.35244 1.64009 6.27993 1.76123 6.27778 1.89346L6.22144 5.42411L2.70665 5.08471C2.57497 5.07206 2.44655 5.13051 2.36969 5.23812C2.29284 5.34579 2.27926 5.48632 2.33405 5.60668L3.79737 8.82029L0.476829 10.021C0.352367 10.066 0.261498 10.1739 0.238207 10.3042C0.214916 10.4344 0.262963 10.5671 0.364085 10.6524L3.06417 12.9279L0.57927 15.4367C0.486155 15.5307 0.450267 15.6672 0.48513 15.7948C0.519993 15.9224 0.620237 16.0217 0.748166 16.0553L4.16319 16.953L2.99445 20.2851C2.95065 20.4099 2.97682 20.5486 3.063 20.649C3.14918 20.7493 3.28214 20.796 3.41236 20.7716L6.88237 20.1179L7.25542 23.6293C7.26938 23.7609 7.35249 23.875 7.47338 23.9286C7.59433 23.9823 7.73466 23.9674 7.8416 23.8895L10.6961 21.8109L12.539 24.823C12.6064 24.9331 12.7261 25 12.8548 25C12.8579 25 12.8611 25 12.8642 24.9999C12.9965 24.9966 13.1169 24.9229 13.18 24.8067L14.8672 21.7048L17.8237 23.6355C17.9344 23.7077 18.0753 23.7156 18.1934 23.6558C18.3114 23.5961 18.3886 23.4779 18.3958 23.3458L18.5898 19.8201L22.0887 20.2963C22.22 20.3142 22.3505 20.2607 22.4314 20.1561C22.5124 20.0516 22.5314 19.9117 22.4813 19.7893L21.1444 16.521L24.5094 15.4508C24.6355 15.4107 24.7306 15.3064 24.7589 15.1772C24.7872 15.048 24.7445 14.9132 24.6467 14.8241ZM20.5375 15.9368C20.4391 15.9681 20.3581 16.0392 20.3143 16.1328C20.2705 16.2265 20.268 16.3341 20.3071 16.4298L21.5531 19.476L18.2921 19.032C18.1893 19.018 18.086 19.0476 18.0064 19.1134C17.9267 19.1792 17.8781 19.2753 17.8725 19.3785L17.6917 22.6646L14.9361 20.8651C14.8496 20.8086 14.7432 20.7909 14.6431 20.8161C14.5429 20.8414 14.4577 20.9074 14.4083 20.9982L12.8359 23.8894L11.1183 21.082C11.0643 20.9938 10.976 20.9322 10.8746 20.9121C10.8507 20.9074 10.8264 20.905 10.8024 20.905C10.7247 20.905 10.6483 20.9294 10.5845 20.9759L7.92402 22.9133L7.57636 19.6406C7.56547 19.5378 7.51205 19.4443 7.42915 19.3826C7.34614 19.3209 7.24135 19.2967 7.13964 19.3159L3.90548 19.9251L4.99473 16.8195C5.02896 16.722 5.02081 16.6146 4.97237 16.5233C4.92388 16.4321 4.83946 16.3652 4.73946 16.3389L1.55661 15.5022L3.87262 13.1639C3.94537 13.0904 3.98414 12.99 3.97945 12.8867C3.97481 12.7834 3.92721 12.6868 3.8482 12.6202L1.33161 10.4993L4.42662 9.38025C4.52383 9.34509 4.60186 9.27087 4.64195 9.17561C4.68204 9.08035 4.68047 8.97263 4.6376 8.87854L3.27379 5.88338L6.54961 6.19974C6.65244 6.2096 6.75488 6.17611 6.83188 6.10726C6.90898 6.03841 6.95376 5.94046 6.95542 5.83705L7.00791 2.54638L10.2553 4.49076C10.3397 4.54125 10.4408 4.55619 10.5361 4.53207C10.6314 4.50805 10.7134 4.44701 10.7636 4.36249L12.7003 1.11065L14.3072 3.98295C14.3576 4.07314 14.4436 4.13818 14.5441 4.16225C14.6446 4.18632 14.7506 4.16733 14.8365 4.10976L17.5706 2.27754L17.7903 5.56136C17.7973 5.66449 17.8469 5.76009 17.9274 5.82494C18.0079 5.88983 18.1117 5.91805 18.2141 5.90296L21.4696 5.4203L20.26 8.48103C20.2219 8.57717 20.2259 8.68479 20.2707 8.77791C20.3156 8.87102 20.3974 8.94114 20.4962 8.97126L23.6441 9.93137L21.2387 12.1776C21.1631 12.2481 21.1204 12.347 21.1211 12.4504C21.1218 12.5537 21.1655 12.6521 21.2419 12.7218L23.674 14.9392L20.5375 15.9368Z" fill="black"/>
</g>
<defs>
<clipPath id="clip0">
<rect width="25" height="25" fill="white"/>
</clipPath>
</defs>
</svg>
