<svg width="123" height="134" viewBox="0 0 123 134" fill="none" xmlns="http://www.w3.org/2000/svg">
<g clip-path="url(#clip0)">
<path d="M112.748 76.1221V75.9379C112.736 64.6186 103.563 55.4459 92.2438 55.4339C91.1876 55.4339 90.1314 55.515 89.0871 55.6752C88.4504 53.4786 87.5503 51.3671 86.405 49.3868C87.5393 47.4976 88.14 45.3351 88.143 43.1315C88.142 39.3271 86.381 35.7379 83.3725 33.4091C80.3649 31.0794 76.4484 30.2735 72.7651 31.2246C69.9578 23.7759 62.2187 19.4058 54.3896 20.8495C51.3981 11.7799 41.9801 6.49268 32.6792 8.65921C23.3783 10.8257 17.2662 19.7302 18.5897 29.1882C13.9833 32.3099 11.5925 37.8093 12.4516 43.3077C7.90524 44.1407 4.48324 47.9161 4.09879 52.5215C3.71534 57.1269 6.46555 61.4179 10.8106 62.9907C10.4302 64.5445 10.235 66.1364 10.228 67.7363C10.228 68.1458 10.241 68.5292 10.263 68.9227C3.44302 71.6759 -0.711837 78.633 0.100112 85.9436C0.912061 93.2541 6.49058 99.131 13.7491 100.32C17.8899 106.832 25.0663 110.782 32.7823 110.795C36.4116 110.801 39.9877 109.924 43.2005 108.238C47.031 112.844 52.8588 115.304 58.8318 114.836C64.8037 114.368 70.177 111.03 73.2436 105.884C76.138 109.202 80.397 111.005 84.7941 110.775C89.1913 110.543 93.238 108.304 95.769 104.7C98.6523 106.575 102.187 107.16 105.521 106.315C108.854 105.471 111.685 103.274 113.328 100.253C119.083 98.9978 123.138 93.8358 122.997 87.9479C122.855 82.06 118.557 77.0992 112.748 76.1221ZM72.2955 35.7289C75.2179 34.3362 78.686 34.7908 81.1519 36.8882C83.6177 38.9857 84.6209 42.3366 83.7149 45.4442L83.6508 45.3721C83.2413 44.8806 82.8308 44.4 82.3963 43.9365L82.3803 43.9184C81.9388 43.4489 81.4822 42.9994 81.0127 42.5628C80.8765 42.4377 80.7354 42.3216 80.6022 42.1984C80.2678 41.8971 79.9294 41.5997 79.577 41.3164C79.3948 41.1692 79.2056 41.029 79.0214 40.8859C78.706 40.6416 78.3876 40.4023 78.0612 40.17C77.857 40.0269 77.6518 39.8877 77.4465 39.7476C77.1282 39.5343 76.8058 39.3301 76.4804 39.1328C76.2631 38.9997 76.0439 38.8705 75.8206 38.7434C75.4922 38.5542 75.1579 38.3719 74.8225 38.1957C74.5962 38.0766 74.3709 37.9605 74.1417 37.8493C73.7953 37.6791 73.4418 37.5189 73.0874 37.3608C72.8622 37.2626 72.6409 37.1565 72.4126 37.0704C72.0332 36.9142 71.6478 36.7731 71.2603 36.6329C71.1001 36.5758 70.9469 36.5088 70.7867 36.4547L72.2955 35.7289ZM8.17755 53.3835C8.17755 49.9855 10.9318 47.2323 14.3287 47.2323C14.51 47.2323 14.6741 47.2483 14.8704 47.2643L18.0551 47.5397L16.9758 44.5311C15.2678 39.7395 17.3262 34.4183 21.8155 32.0245L23.1831 31.2937L22.8507 29.7789C21.1868 22.0218 26.1255 14.3849 33.8826 12.721C41.6397 11.057 49.2766 15.9958 50.9415 23.7529L51.4151 25.9755L53.5776 25.2786C56.8785 24.2124 60.4747 24.5848 63.4872 26.3038C66.4987 28.0228 68.6482 30.9302 69.4091 34.3142L69.8186 36.1373C69.6714 36.0943 69.5173 36.0612 69.3701 36.0202C68.9766 35.9101 68.5832 35.8049 68.1847 35.7108C67.9344 35.6508 67.6821 35.5957 67.4328 35.5426C67.0304 35.4595 66.6259 35.3845 66.2184 35.3194C65.9721 35.2783 65.7268 35.2353 65.4765 35.2002C65.036 35.1382 64.5905 35.0931 64.146 35.0541C63.9287 35.034 63.7155 35.007 63.4982 34.993C62.8254 34.956 62.1587 34.9299 61.4879 34.9299C51.6484 34.9339 42.4957 39.9738 37.2305 48.2855C31.657 46.4464 25.5649 47.0701 20.4799 49.9995L19.9553 50.3059C19.1814 50.7885 18.4406 51.3251 17.7387 51.9088C17.6306 51.9969 17.5195 52.081 17.4154 52.1711C16.7576 52.7357 16.1359 53.3404 15.5552 53.9842C15.4471 54.1043 15.3399 54.2275 15.2338 54.3506C14.6621 55.0074 14.1325 55.7002 13.649 56.424C13.5829 56.5242 13.5258 56.6293 13.4617 56.7274C12.9872 57.4643 12.5617 58.2312 12.1862 59.0241C12.1702 59.0601 12.1452 59.0912 12.1292 59.1282C9.74939 58.2171 8.17755 55.9315 8.17755 53.3835ZM111.703 96.3737L110.536 96.5149L110.067 97.5962C108.988 100.114 106.729 101.932 104.038 102.446C101.347 102.96 98.5772 102.102 96.647 100.159L94.5736 98.0817L93.3431 100.747C91.6762 104.358 88.0679 106.677 84.0913 106.693C80.1136 106.709 76.4874 104.419 74.7914 100.821L72.6299 96.2015L70.99 101.032C69.2379 106.211 64.6956 109.946 59.2753 110.663C53.8549 111.38 48.4987 108.955 45.4601 104.409L44.3428 102.728L42.6448 103.82C39.7024 105.707 36.2784 106.704 32.7823 106.694C26.1636 106.684 20.0544 103.137 16.7646 97.3929L16.238 96.4659L15.1757 96.3677C9.29586 95.7971 4.65343 91.1226 4.12382 85.2377C3.5952 79.3529 7.32856 73.9255 13.0132 72.3146L14.7392 71.8371L14.4869 70.055C13.6079 63.8087 16.3821 57.6104 21.6263 54.1043L22.1389 53.791C26.7102 50.9837 32.3608 50.5782 37.2856 52.7047L39.0016 53.4526L39.9036 51.8127C44.0845 44.1737 51.9918 39.313 60.6959 39.0327C69.4001 38.7524 77.6037 43.0945 82.2672 50.4491L82.2792 50.4671C83.849 52.924 84.9613 55.6451 85.56 58.4985L85.9985 60.6089L88.086 60.0673C93.0037 58.7878 98.2358 59.8561 102.258 62.9607C106.28 66.0653 108.639 70.8569 108.647 75.9379C108.649 76.5396 108.612 77.1423 108.539 77.74L108.383 80.0387H110.697C115.014 80.0627 118.574 83.4276 118.838 87.7366C119.103 92.0447 115.984 95.8211 111.703 96.3737Z" fill="black"/>
</g>
<circle cx="73.5" cy="109.5" r="4.5" fill="white" stroke="black" stroke-width="2"/>
<circle cx="93.5" cy="114.5" r="4.5" fill="white" stroke="black" stroke-width="2"/>
<circle cx="82.5" cy="122.5" r="4.5" fill="white" stroke="black" stroke-width="2"/>
<circle cx="67.5" cy="128.5" r="4.5" fill="white" stroke="black" stroke-width="2"/>
<defs>
<clipPath id="clip0">
<rect width="123" height="123" fill="white"/>
</clipPath>
</defs>
</svg>
